; OM File Header - Saved 2017/03/30 17:06:55
; (6.120001 :patc (om-make-point 10 160) (om-make-point 0 0) (om-make-point 1335 733) "" 183 0 "2017/03/21 13:39:46" "2017/03/30 17:06:55")
; End File Header
(in-package :om)(load-lib-for (quote ("Patterns")))(setf *om-current-persistent* (om-load-patch1 "002 line" (quote ((let ((box (om-load-boxcall (quote genfun) "P-NEXT 2" (quote p-next) (quote ((om-load-inputfun (quote input-funbox) "pattern" "OBJ" (quote n)) (om-load-inputfun (quote input-funbox) "pattern" "NUM" (quote a)))) (om-make-point 899 406) nil nil "&" nil 1))) (when (fboundp (quote set-active)) (set-active box nil)) box) (let ((box (om-load-boxcall (quote bastype) "aux 11" (quote t) (quote nil) (om-make-point 822 368) (om-make-point 34 32) 80 "80" nil))) (when (fboundp (quote set-active)) (set-active box nil)) box) (let ((box (om-load-boxcall (quote genfun) "REPEAT-N" (quote repeat-n) (quote ((om-load-inputfun (quote input-funbox) "something" "SELF" nil) (om-load-inputfun (quote input-funbox) "times" "N" 0))) (om-make-point 773 502) nil nil nil nil 1))) (when (fboundp (quote set-active)) (set-active box nil)) box) (let ((box (om-load-boxcall (quote bastype) "aux 10" (quote t) (quote nil) (om-make-point 942 482) (om-make-point 37 32) 2.5 "2.5" nil))) (when (fboundp (quote set-active)) (set-active box nil)) box) (let ((box (om-load-boxcall (quote genfun) "OM* 2" (quote om*) (quote ((om-load-inputfun (quote input-funbox) "number or list" "ARG1" (quote n)) (om-load-inputfun (quote input-funbox) "number or list" "ARG2" 2.5))) (om-make-point 924 517) nil nil nil nil 1))) (when (fboundp (quote set-active)) (set-active box nil)) box) (let ((box (om-load-boxcall (quote bastype) "aux 9" (quote t) (quote nil) (om-make-point 1075 106) (om-make-point 27 32) 1 "1" nil))) (when (fboundp (quote set-active)) (set-active box nil)) box) (let ((box (om-load-boxcall (quote bastype) "aux 6" (quote t) (quote nil) (om-make-point 1004 104) (om-make-point 41 32) 400 "400" nil))) (when (fboundp (quote set-active)) (set-active box nil)) box) (let ((box (om-load-boxcall (quote genfun) "P-LINE 3" (quote p-line) (quote ((om-load-inputfun (quote input-funbox) "" "OF" nil) (om-load-inputkeyword (quote input-keyword) "" "for" (quote :for) nil nil))) (om-make-point 1019 148) nil nil nil nil 1))) (when (fboundp (quote set-active)) (set-active box nil)) box) (let ((box (om-load-boxcall (quote bastype) "aux 8" (quote t) (quote nil) (om-make-point 938 31) (om-make-point 45 32) (list 2 3) "(2 3)" nil))) (when (fboundp (quote set-active)) (set-active box nil)) box) (let ((box (om-load-boxcall (quote bastype) "aux 6" (quote t) (quote nil) (om-make-point 877 109) (om-make-point 41 32) 200 "200" nil))) (when (fboundp (quote set-active)) (set-active box nil)) box) (let ((box (om-load-boxcall (quote genfun) "P-WEIGHTING" (quote p-weighting) (quote ((om-load-inputfun (quote input-funbox) "" "OF" nil))) (om-make-point 922 71) nil nil nil nil 1))) (when (fboundp (quote set-active)) (set-active box nil)) box) (let ((box (om-load-boxcall (quote genfun) "P-LINE 3" (quote p-line) (quote ((om-load-inputfun (quote input-funbox) "" "OF" nil) (om-load-inputkeyword (quote input-keyword) "" "for" (quote :for) nil nil))) (om-make-point 930 152) nil nil nil nil 1))) (when (fboundp (quote set-active)) (set-active box nil)) box) (let ((box (om-load-boxcall (quote bastype) "aux 8" (quote t) (quote nil) (om-make-point 807 37) (om-make-point 55 32) (list 4 6 8) "(4 6 8)" nil))) (when (fboundp (quote set-active)) (set-active box nil)) box) (let ((box (om-load-boxcall (quote bastype) "aux 6" (quote t) (quote nil) (om-make-point 752 115) (om-make-point 41 32) 100 "100" nil))) (when (fboundp (quote set-active)) (set-active box nil)) box) (let ((box (om-load-boxcall (quote genfun) "P-WEIGHTING" (quote p-weighting) (quote ((om-load-inputfun (quote input-funbox) "" "OF" nil))) (om-make-point 797 77) nil nil nil nil 1))) (when (fboundp (quote set-active)) (set-active box nil)) box) (let ((box (om-load-boxcall (quote genfun) "P-LINE 3" (quote p-line) (quote ((om-load-inputfun (quote input-funbox) "" "OF" nil) (om-load-inputkeyword (quote input-keyword) "" "for" (quote :for) nil nil))) (om-make-point 805 158) nil nil nil nil 1))) (when (fboundp (quote set-active)) (set-active box nil)) box) (let ((box (om-load-boxcall (quote lispfun) "LIST" (quote list) (quote ((om-load-inputfun (quote input-funbox) "add-input" "add-input" (quote a)) (om-load-inputfun (quote input-funbox) "add-input" "add-input" (quote b)) (om-load-inputfun (quote input-funbox) "add-input" "add-input" (quote c)))) (om-make-point 906 252) (om-make-point 103 44) nil nil nil 1))) (when (fboundp (quote set-active)) (set-active box nil)) box) (let ((box (om-load-boxcall (quote genfun) "P-HEAP" (quote p-heap) (quote ((om-load-inputfun (quote input-funbox) "" "OF" nil))) (om-make-point 933 307) nil nil nil nil 1))) (when (fboundp (quote set-active)) (set-active box nil)) box) (let ((box (om-load-boxcall (quote bastype) "aux 7" (quote t) (quote nil) (om-make-point 726 274) (om-make-point 41 32) 100 "100" nil))) (when (fboundp (quote set-active)) (set-active box nil)) box) (let ((box (om-load-boxcall (quote bastype) "aux 5" (quote t) (quote nil) (om-make-point 679 275) (om-make-point 34 32) 40 "40" nil))) (when (fboundp (quote set-active)) (set-active box nil)) box) (let ((box (om-load-boxcall (quote bastype) "aux 4" (quote t) (quote nil) (om-make-point 735 365) (om-make-point 41 32) 100 "100" nil))) (when (fboundp (quote set-active)) (set-active box nil)) box) (let ((box (om-load-boxcall (quote genfun) "OM*" (quote om*) (quote ((om-load-inputfun (quote input-funbox) "number or list" "ARG1" (quote n)) (om-load-inputfun (quote input-funbox) "number or list" "ARG2" 100))) (om-make-point 715 400) nil nil nil nil 1))) (when (fboundp (quote set-active)) (set-active box nil)) box) (let ((box (om-load-boxcall (quote genfun) "OM-RANDOM" (quote om-random) (quote ((om-load-inputfun (quote input-funbox) "min" "LOW" 40) (om-load-inputfun (quote input-funbox) "max" "HIGH" 80))) (om-make-point 681 311) nil nil nil nil 1))) (when (fboundp (quote set-active)) (set-active box nil)) box) (let ((box (om-load-boxcall (quote genfun) "X-APPEND" (quote x-append) (quote ((om-load-inputfun (quote input-funbox) "first element" "L1?" nil) (om-load-inputfun (quote input-funbox) "second element" "L2?" nil))) (om-make-point 355 347) (om-make-point 59 60) nil nil nil 1))) (when (fboundp (quote set-active)) (set-active box nil)) box) (let ((box (om-load-boxcall (quote genfun) "P-LINE 2" (quote p-line) (quote ((om-load-inputfun (quote input-funbox) "" "OF" nil))) (om-make-point 363 413) nil nil nil nil 1))) (when (fboundp (quote set-active)) (set-active box nil)) box) (let ((box (om-load-editor-box1 "CHORD" (quote chord) (quote ((om-load-inputfun (quote input-funbox) "object" "self" nil) (om-load-inputfun (quote input-funbox) "pitches (list of midicents)" "lmidic" (list 6000)) (om-load-inputfun (quote input-funbox) "velocities (list of values 0-127)" "lvel" (list 100)) (om-load-inputfun (quote input-funbox) "offsets (list of values in ms)" "loffset" (list 0)) (om-load-inputfun (quote input-funbox) "durations (list of values in ms)" "ldur" (list 1000)) (om-load-inputfun (quote input-funbox) "MIDI channels (list of values 0-16)" "lchan" (list 1)))) (om-make-point 443 165) (om-make-point 60 90) (let ((thechord (make-instance (quote chord) :lmidic (quote (6500 6800)) :ldur (quote (1000 1000)) :lvel (quote (100 100)) :loffset (quote (0 0)) :lchan (quote (1 1))))) (load-port-info thechord (quote (0 0))) (init-mus-color thechord (quote nil)) (set-extra-pairs thechord (quote nil)) (set-tonalite thechord nil) thechord) "x" nil (pairlis (quote (approx fontsize staff cmnpref deltapict outport inport player zoom notechancolor? grillestep mode winsize winpos score-mode obj-mode cursor-mode show-stems scale)) (list 2 24 (quote g) (let ((newobj (make-instance (quote edition-values)))) (setf (paper-size newobj) (om-make-point 600 800)) (setf (top-margin newobj) 2) (setf (left-margin newobj) 1) (setf (right-margin newobj) 1) (setf (bottom-margin newobj) 1) (setf (orientation newobj) nil) (setf (scale newobj) nil) (setf (system-space newobj) (quote (1))) (setf (system-color newobj) (quote nil)) (setf (line-space newobj) 1) (setf (title newobj) nil) (setf (show-title? newobj) nil) (setf (show-page? newobj) nil) (setf (sheet-id newobj) nil) (setf (page-mode newobj) nil) newobj) (om-make-point 0 0) nil nil (quote :midi-player) 1 nil 1000 1 (om-make-point 370 280) (om-make-point 0 0) 0 0 (quote :normal) (quote t) nil)) t nil nil nil))) (when (fboundp (quote set-active)) (set-active box nil)) box) (let ((box (om-load-boxcall (quote genfun) "P-WEIGHTING 2" (quote p-weighting) (quote ((om-load-inputfun (quote input-funbox) "" "OF" nil))) (om-make-point 426 270) nil nil nil nil 1))) (when (fboundp (quote set-active)) (set-active box nil)) box) (let ((box (om-load-boxcall (quote bastype) "aux 3" (quote t) (quote nil) (om-make-point 450 466) (om-make-point 34 32) 12 "12" nil))) (when (fboundp (quote set-active)) (set-active box nil)) box) (let ((box (om-load-boxcall (quote genfun) "P-LINE" (quote p-line) (quote ((om-load-inputfun (quote input-funbox) "" "OF" nil))) (om-make-point 168 317) nil nil nil nil 1))) (when (fboundp (quote set-active)) (set-active box nil)) box) (let ((box (om-load-boxcomment "comment" (om-make-point 47 30) (quote "line") "" (om-make-point 614 21) nil (om-make-color 0 0 0) (om-make-font "Liberation Sans" 15.998697916666666D0 :family "Liberation Sans" :style (quote (:bold)) :mode (quote nil))))) (when (fboundp (quote set-active)) (set-active box nil)) box) (let ((box (om-load-boxcall (quote genfun) "DX->X" (quote dx->x) (quote ((om-load-inputfun (quote input-funbox) "a number" "START" 0) (om-load-inputfun (quote input-funbox) "a list of numbers" "LIST" (list 1 1)))) (om-make-point 833 494) nil nil nil nil 1))) (when (fboundp (quote set-active)) (set-active box nil)) box) (let ((box (om-load-editor-box1 "CHORD-SEQ" (quote chord-seq) (quote ((om-load-inputfun (quote input-funbox) "object" "self" nil) (om-load-inputfun (quote input-funbox) "pitches (mc): list or list of lists" "lmidic" (list 6000)) (om-load-inputfun (quote input-funbox) "onsets (ms): list" "lonset" (list 0 150)) (om-load-inputfun (quote input-funbox) "durations (ms): list or list of lists" "ldur" (list 1000)) (om-load-inputfun (quote input-funbox) "velocities (0-127): list or list of lists" "lvel" (list 100)) (om-load-inputfun (quote input-funbox) "offsets (ms): list or list of lists" "loffset" (list 0)) (om-load-inputfun (quote input-funbox) "MIDI channels (1-16): list or list of lists" "lchan" (list 1)) (om-load-inputfun (quote input-funbox) "relative chords duration (0-100)" "legato" 0))) (om-make-point 707 575) (om-make-point 409 99) (let ((newobj (when (find-class (quote chord-seq) nil) (make-instance (quote chord-seq) :lmidic (quote ((7300) (4200) (4300) (8300) (4100) (6700) (9000) (9000) (8800) (8600) (8500) (5500) (7500) (6400) (7400) (8100) (6400) (4500) (8700) (7000) (8500) (4100) (9800) (9300) (5200) (7500) (9200) (4300) (5100) (4700) (6600) (4900) (6700) (8100) (8500) (7700) (9500) (8300) (4800) (5900) (5500) (6800) (9400) (8600) (6200) (8300) (7100) (8000) (7800) (5400) (8100) (7800) (7700) (7400) (4600) (6900) (4800) (6700) (7800) (6100) (7200) (9800) (4600) (6500) (5200) (4800) (8500) (8600) (8100) (7600) (4300) (8300) (6500) (7500) (6200) (4200) (9600) (9900) (8100) (8300))) :lonset (quote (0 100 200 300 400 500 600 700 800 1000 1200 1400 1800 1900 2000 2100 2200 2300 2400 2600 2800 3200 3400 3600 3700 3800 3900 4000 4100 4200 4300 4400 4800 5000 5200 5400 5800 5900 6000 6100 6200 6300 6400 6600 6800 7000 7100 7200 7300 7400 7500 7600 8000 8400 8500 8600 8700 8800 9000 9200 9400 9500 9600 9700 9800 9900 10000 10100 10200 10600 10800 11000 11200 11400 11600 11800 12200 12300 12400 12500 12800)) :ldur (quote ((250) (250) (250) (250) (250) (250) (250) (250) (500) (500) (500) (1000) (250) (250) (250) (250) (250) (250) (500) (500) (1000) (500) (500) (250) (250) (250) (250) (250) (250) (250) (250) (1000) (500) (500) (500) (1000) (250) (250) (250) (250) (250) (250) (500) (500) (500) (250) (250) (250) (250) (250) (250) (1000) (1000) (250) (250) (250) (250) (500) (500) (500) (250) (250) (250) (250) (250) (250) (250) (250) (1000) (500) (500) (500) (500) (500) (500) (1000) (250) (250) (250) (250))) :lvel (quote ((100) (100) (100) (100) (100) (100) (100) (100) (100) (100) (100) (100) (100) (100) (100) (100) (100) (100) (100) (100) (100) (100) (100) (100) (100) (100) (100) (100) (100) (100) (100) (100) (100) (100) (100) (100) (100) (100) (100) (100) (100) (100) (100) (100) (100) (100) (100) (100) (100) (100) (100) (100) (100) (100) (100) (100) (100) (100) (100) (100) (100) (100) (100) (100) (100) (100) (100) (100) (100) (100) (100) (100) (100) (100) (100) (100) (100) (100) (100) (100))) :loffset (quote ((0) (0) (0) (0) (0) (0) (0) (0) (0) (0) (0) (0) (0) (0) (0) (0) (0) (0) (0) (0) (0) (0) (0) (0) (0) (0) (0) (0) (0) (0) (0) (0) (0) (0) (0) (0) (0) (0) (0) (0) (0) (0) (0) (0) (0) (0) (0) (0) (0) (0) (0) (0) (0) (0) (0) (0) (0) (0) (0) (0) (0) (0) (0) (0) (0) (0) (0) (0) (0) (0) (0) (0) (0) (0) (0) (0) (0) (0) (0) (0))) :lchan (quote ((1) (1) (1) (1) (1) (1) (1) (1) (1) (1) (1) (1) (1) (1) (1) (1) (1) (1) (1) (1) (1) (1) (1) (1) (1) (1) (1) (1) (1) (1) (1) (1) (1) (1) (1) (1) (1) (1) (1) (1) (1) (1) (1) (1) (1) (1) (1) (1) (1) (1) (1) (1) (1) (1) (1) (1) (1) (1) (1) (1) (1) (1) (1) (1) (1) (1) (1) (1) (1) (1) (1) (1) (1) (1) (1) (1) (1) (1) (1) (1))) :legato 0)))) (load-port-info newobj (quote ((0) (0) (0) (0) (0) (0) (0) (0) (0) (0) (0) (0) (0) (0) (0) (0) (0) (0) (0) (0) (0) (0) (0) (0) (0) (0) (0) (0) (0) (0) (0) (0) (0) (0) (0) (0) (0) (0) (0) (0) (0) (0) (0) (0) (0) (0) (0) (0) (0) (0) (0) (0) (0) (0) (0) (0) (0) (0) (0) (0) (0) (0) (0) (0) (0) (0) (0) (0) (0) (0) (0) (0) (0) (0) (0) (0) (0) (0) (0) (0)))) (init-mus-color newobj (quote nil)) (set-extra-pairs newobj (quote nil)) (set-patch-pairs newobj (quote nil)) (set-name newobj nil) (set-tonalite newobj nil) newobj) nil nil (pairlis (quote (approx fontsize staff cmnpref deltapict outport inport player zoom notechancolor? grillestep mode winsize winpos score-mode obj-mode cursor-mode show-stems scale)) (list 2 24 (quote g) (let ((newobj (make-instance (quote edition-values)))) (setf (paper-size newobj) (om-make-point 600 800)) (setf (top-margin newobj) 2) (setf (left-margin newobj) 1) (setf (right-margin newobj) 1) (setf (bottom-margin newobj) 1) (setf (orientation newobj) nil) (setf (scale newobj) nil) (setf (system-space newobj) (quote (1))) (setf (system-color newobj) (quote nil)) (setf (line-space newobj) 1) (setf (title newobj) nil) (setf (show-title? newobj) nil) (setf (show-page? newobj) nil) (setf (sheet-id newobj) nil) (setf (page-mode newobj) nil) newobj) (om-make-point 0 0) nil nil (quote :midi-player) 1 nil 1000 0 (om-make-point 370 280) (om-make-point 400 20) 0 1 (quote :normal) (quote t) nil)) t nil nil nil))) (when (fboundp (quote set-active)) (set-active box nil)) box) (let ((box (om-load-editor-box1 "CHORD-SEQ" (quote chord-seq) (quote ((om-load-inputfun (quote input-funbox) "object" "self" nil) (om-load-inputfun (quote input-funbox) "pitches (mc): list or list of lists" "lmidic" (list 6000)) (om-load-inputfun (quote input-funbox) "onsets (ms): list" "lonset" (list 0 120)) (om-load-inputfun (quote input-funbox) "durations (ms): list or list of lists" "ldur" (list 1000)) (om-load-inputfun (quote input-funbox) "velocities (0-127): list or list of lists" "lvel" (list 100)) (om-load-inputfun (quote input-funbox) "offsets (ms): list or list of lists" "loffset" (list 0)) (om-load-inputfun (quote input-funbox) "MIDI channels (1-16): list or list of lists" "lchan" (list 1)) (om-load-inputfun (quote input-funbox) "relative chords duration (0-100)" "legato" 100))) (om-make-point 334 583) (om-make-point 230 86) (let ((newobj (when (find-class (quote chord-seq) nil) (make-instance (quote chord-seq) :lmidic (quote ((6000) (6300) (6400) (6500) (6500) (6500) (6800) (6500) (6500) (6500) (6500) (6500))) :lonset (quote (0 120 240 360 480 600 720 840 960 1080 1200 1320 1440)) :ldur (quote ((120) (120) (120) (120) (120) (120) (120) (120) (120) (120) (120) (120))) :lvel (quote ((100) (100) (100) (100) (100) (100) (100) (100) (100) (100) (100) (100))) :loffset (quote ((0) (0) (0) (0) (0) (0) (0) (0) (0) (0) (0) (0))) :lchan (quote ((1) (1) (1) (1) (1) (1) (1) (1) (1) (1) (1) (1))) :legato 100)))) (load-port-info newobj (quote ((0) (0) (0) (0) (0) (0) (0) (0) (0) (0) (0) (0)))) (init-mus-color newobj (quote nil)) (set-extra-pairs newobj (quote nil)) (set-patch-pairs newobj (quote nil)) (set-name newobj nil) (set-tonalite newobj nil) newobj) nil nil (pairlis (quote (approx fontsize staff cmnpref deltapict outport inport player zoom notechancolor? grillestep mode winsize winpos score-mode obj-mode cursor-mode show-stems scale)) (list 2 24 (quote g) (let ((newobj (make-instance (quote edition-values)))) (setf (paper-size newobj) (om-make-point 600 800)) (setf (top-margin newobj) 2) (setf (left-margin newobj) 1) (setf (right-margin newobj) 1) (setf (bottom-margin newobj) 1) (setf (orientation newobj) nil) (setf (scale newobj) nil) (setf (system-space newobj) (quote (1))) (setf (system-color newobj) (quote nil)) (setf (line-space newobj) 1) (setf (title newobj) nil) (setf (show-title? newobj) nil) (setf (show-page? newobj) nil) (setf (sheet-id newobj) nil) (setf (page-mode newobj) nil) newobj) (om-make-point 0 0) nil nil (quote :midi-player) 1 nil 1000 0 (om-make-point 370 280) (om-make-point 400 20) 0 1 (quote :normal) (quote t) nil)) t nil nil nil))) (when (fboundp (quote set-active)) (set-active box nil)) box) (let ((box (om-load-boxcall (quote genfun) "P-NEXT" (quote p-next) (quote ((om-load-inputfun (quote input-funbox) "pattern" "OBJ" (quote n)) (om-load-inputfun (quote input-funbox) "pattern" "NUM" 12))) (om-make-point 368 498) nil nil nil nil 1))) (when (fboundp (quote set-active)) (set-active box nil)) box) (let ((box (om-load-editor-box1 "CHORD" (quote chord) (quote ((om-load-inputfun (quote input-funbox) "object" "self" nil) (om-load-inputfun (quote input-funbox) "pitches (list of midicents)" "lmidic" (list 6000)) (om-load-inputfun (quote input-funbox) "velocities (list of values 0-127)" "lvel" (list 100)) (om-load-inputfun (quote input-funbox) "offsets (list of values in ms)" "loffset" (list 0)) (om-load-inputfun (quote input-funbox) "durations (list of values in ms)" "ldur" (list 1000)) (om-load-inputfun (quote input-funbox) "MIDI channels (list of values 0-16)" "lchan" (list 1)))) (om-make-point 355 206) (om-make-point 60 90) (let ((thechord (make-instance (quote chord) :lmidic (quote (6000 6300 6400)) :ldur (quote (1000 1000 1000)) :lvel (quote (100 100 100)) :loffset (quote (0 0 0)) :lchan (quote (1 1 1))))) (load-port-info thechord (quote (0 0 0))) (init-mus-color thechord (quote nil)) (set-extra-pairs thechord (quote nil)) (set-tonalite thechord nil) thechord) "x" nil (pairlis (quote (approx fontsize staff cmnpref deltapict outport inport player zoom notechancolor? grillestep mode winsize winpos score-mode obj-mode cursor-mode show-stems scale)) (list 2 24 (quote g) (let ((newobj (make-instance (quote edition-values)))) (setf (paper-size newobj) (om-make-point 600 800)) (setf (top-margin newobj) 2) (setf (left-margin newobj) 1) (setf (right-margin newobj) 1) (setf (bottom-margin newobj) 1) (setf (orientation newobj) nil) (setf (scale newobj) nil) (setf (system-space newobj) (quote (1))) (setf (system-color newobj) (quote nil)) (setf (line-space newobj) 1) (setf (title newobj) nil) (setf (show-title? newobj) nil) (setf (show-page? newobj) nil) (setf (sheet-id newobj) nil) (setf (page-mode newobj) nil) newobj) (om-make-point 0 0) nil nil (quote :midi-player) 1 nil 1000 1 (om-make-point 370 280) (om-make-point 0 0) 0 0 (quote :normal) (quote t) nil)) t nil nil nil))) (when (fboundp (quote set-active)) (set-active box nil)) box) (let ((box (om-load-boxcomment "comment" (om-make-point 337 90) (quote "Enumerates data in sequential order and sticks on the$last element once it has been reached.$$See generic pattern initializations for documentation on $keyword initializations to the pattern. ") "" (om-make-point 153 22) nil (om-make-color 0 0 0) (om-make-font "Liberation Sans" 12 :family "Liberation Sans" :style (quote (:plain)) :mode (quote nil))))) (when (fboundp (quote set-active)) (set-active box nil)) box) (let ((box (om-load-boxcall (quote bastype) "aux 2" (quote t) (quote nil) (om-make-point 220 372) (om-make-point 34 32) 12 "12" nil))) (when (fboundp (quote set-active)) (set-active box nil)) box) (let ((box (om-load-boxcall (quote genfun) "P-NEXT" (quote p-next) (quote ((om-load-inputfun (quote input-funbox) "pattern" "OBJ" (quote n)) (om-load-inputfun (quote input-funbox) "pattern" "NUM" 12))) (om-make-point 173 431) nil nil nil nil 1))) (when (fboundp (quote set-active)) (set-active box nil)) box) (let ((box (om-load-boxcall (quote bastype) "aux" (quote t) (quote nil) (om-make-point 158 251) (om-make-point 64 32) (list (quote a) (quote b) (quote c) (quote d)) "(a b c d)" nil))) (when (fboundp (quote set-active)) (set-active box nil)) box))) (quote ((17 0 0 0 nil 0) (1 0 0 1 nil 0) (21 0 2 0 nil 0) (1 0 2 1 nil 0) (0 0 4 0 nil 0) (3 0 4 1 nil 0) (6 0 7 0 nil 0) (5 0 7 1 nil 0) (8 0 10 0 nil 0) (9 0 11 0 nil 0) (10 0 11 1 nil 0) (12 0 14 0 nil 0) (13 0 15 0 nil 0) (14 0 15 1 nil 0) (15 0 16 0 nil 0) (11 0 16 1 nil 0) (7 0 16 2 nil 0) (16 0 17 0 nil 0) (22 0 21 0 nil 0) (20 0 21 1 nil 0) (19 0 22 0 nil 0) (18 0 22 1 nil 0) (34 1 23 0 nil 0) (26 0 23 1 nil 0) (23 0 24 0 nil 0) (25 1 26 0 nil 0) (38 0 28 0 nil 0) (0 0 30 1 nil 0) (2 0 31 1 nil 0) (30 0 31 2 nil 0) (4 0 31 3 nil 0) (33 0 32 1 nil 0) (24 0 33 0 nil 0) (27 0 33 1 nil 0) (28 0 37 0 nil 0) (36 0 37 1 nil 0))) nil 6.120001))