; OM File Header - Saved 2024/01/02 16:22:26
; (7.04 :patc (om-make-point 118 10) (om-make-point 0 0) (om-make-point 1191 707) "" 183 0 nil "2024/01/02 16:22:26")
; End File Header
(in-package :om)(load-lib-for (quote ("Patterns")))(setf *om-current-persistent* (om-load-patch1 "005 b - pval, dynamic weighting" (quote ((let ((box (om-load-boxcomment "comment" (om-make-point 256 45) (quote "May be used to retrive the value of the$named variable.  Perhaps not very useful?") "" (om-make-point 760 300) nil (om-make-color 0 0 0) (om-make-font "Liberation Sans" 12 :family "Liberation Sans" :style (quote (:plain)) :mode (quote nil))))) (when (fboundp (quote set-active)) (set-active box nil)) box) (let ((box (om-load-boxcall (quote genfun) "GET-PVAL" (quote get-pval) (quote ((om-load-inputfun (quote input-funbox) "" "NAME" nil))) (om-make-point 700 300) nil nil nil nil 1))) (when (fboundp (quote set-active)) (set-active box nil)) box) (let ((box (om-load-boxcomment "comment" (om-make-point 215 30) (quote "set the value of the named variable") "" (om-make-point 760 220) nil (om-make-color 0 0 0) (om-make-font "Liberation Sans" 12 :family "Liberation Sans" :style (quote (:plain)) :mode (quote nil))))) (when (fboundp (quote set-active)) (set-active box nil)) box) (let ((box (om-load-boxcomment "comment" (om-make-point 245 90) (quote "returns a closure with a named variable.$May be used as a placeholder$in a pattern for items which only$get a value after the pattern is$initialized") "" (om-make-point 760 100) nil (om-make-color 0 0 0) (om-make-font "Liberation Sans" 12 :family "Liberation Sans" :style (quote (:plain)) :mode (quote nil))))) (when (fboundp (quote set-active)) (set-active box nil)) box) (let ((box (om-load-boxcall (quote genfun) "SET-PVAL" (quote set-pval) (quote ((om-load-inputfun (quote input-funbox) "" "NAME" nil) (om-load-inputfun (quote input-funbox) "" "VAL" nil))) (om-make-point 700 200) nil nil nil nil 1))) (when (fboundp (quote set-active)) (set-active box nil)) box) (let ((box (om-load-boxcall (quote genfun) "PVAL 2" (quote pval) (quote ((om-load-inputfun (quote input-funbox) "" "NAME" nil))) (om-make-point 700 100) nil nil nil nil 1))) (when (fboundp (quote set-active)) (set-active box nil)) box) (let ((box (om-load-boxcall (quote genfun) "PVAL" (quote pval) (quote ((om-load-inputfun (quote input-funbox) "" "NAME" nil))) (om-make-point 313 138) nil nil nil nil 1))) (when (fboundp (quote set-active)) (set-active box nil)) box) (let ((box (om-load-boxcall (quote genfun) "PVAL" (quote pval) (quote ((om-load-inputfun (quote input-funbox) "" "NAME" nil))) (om-make-point 257 136) nil nil nil nil 1))) (when (fboundp (quote set-active)) (set-active box nil)) box) (let ((box (om-load-boxcomment "comment" (om-make-point 203 75) (quote "'pval creates a named variable.  $It's value can be set at init time, $or later in a call to #'set-pval.$") "" (om-make-point 361 141) nil (om-make-color 0 0 0) (om-make-font "Liberation Sans" 12 :family "Liberation Sans" :style (quote (:plain)) :mode (quote nil))))) (when (fboundp (quote set-active)) (set-active box nil)) box) (let ((box (om-load-boxcomment "comment" (om-make-point 273 60) (quote "collect n items from the weighting.$Inside the loop the weights ('whites', 'blacks')$are updated dynamically along the way") "" (om-make-point 325 400) nil (om-make-color 0 0 0) (om-make-font "Liberation Sans" 12 :family "Liberation Sans" :style (quote (:plain)) :mode (quote nil))))) (when (fboundp (quote set-active)) (set-active box nil)) box) (let ((box (om-load-boxcall (quote bastype) "aux 5" (quote t) (quote nil) (om-make-point 305 370) (om-make-point 41 32) 120 "120" nil))) (when (fboundp (quote set-active)) (set-active box nil)) box) (let ((box (om-load-boxwithed1 (quote box-with-win) "OMLOOP 2" (quote omloop) (quote ((om-load-inputfun (quote input-funbox) "" "note pattern" nil) (om-load-inputfun (quote input-funbox) "" "function" nil) (om-load-inputfun (quote input-funbox) "" "n (how many)" nil))) (om-make-point 229 402) (om-make-point 98 60) nil nil (list (let ((box (om-load-boxcall (quote genfun) "SET-PVAL 2" (quote set-pval) (quote ((om-load-inputfun (quote input-funbox) "" "NAME" nil) (om-load-inputfun (quote input-funbox) "" "VAL" nil))) (om-make-point 195 436) nil nil nil nil 1))) (when (fboundp (quote set-active)) (set-active box nil)) box) (let ((box (om-load-boxcall (quote genfun) "SET-PVAL" (quote set-pval) (quote ((om-load-inputfun (quote input-funbox) "" "NAME" nil) (om-load-inputfun (quote input-funbox) "" "VAL" nil))) (om-make-point 304 434) nil nil nil nil 1))) (when (fboundp (quote set-active)) (set-active box nil)) box) (let ((box (om-load-boxcomment "comment" (om-make-point 101 45) (quote "fit our function $to 'n' samples") "" (om-make-point 305 140) nil (om-make-color 0 0 0) (om-make-font "Liberation Sans" 12 :family "Liberation Sans" :style (quote (:plain)) :mode (quote nil))))) (when (fboundp (quote set-active)) (set-active box nil)) box) (let ((box (om-load-boxcomment "comment" (om-make-point 242 60) (quote "we only want the the named variables$to be updated, and don't care what$the calls return here") "" (om-make-point 272 526) nil (om-make-color 0 0 0) (om-make-font "Liberation Sans" 12 :family "Liberation Sans" :style (quote (:plain)) :mode (quote nil))))) (when (fboundp (quote set-active)) (set-active box nil)) box) (let ((box (om-load-boxcomment "comment" (om-make-point 258 75) (quote "Here's the interesting part:$the named pvals get updated dynamically,$and the weights get adjusted accordingly$in the pattern") "" (om-make-point 355 426) nil (om-make-color 0 0 0) (om-make-font "Liberation Sans" 12 :family "Liberation Sans" :style (quote (:plain)) :mode (quote nil))))) (when (fboundp (quote set-active)) (set-active box nil)) box) (let ((box (om-load-seqbox "SEQUENCE" (quote sequence) (quote ((om-load-inputfun (quote input-funbox) "something" "PATCH" (quote a)) (om-load-inputfun (quote input-funbox) "more things" "OPPATCH" (quote b)))) (om-make-point 198 517) nil nil nil 2))) (when (fboundp (quote set-active)) (set-active box nil)) box) (let ((box (om-load-boxcall (quote genfun) "OM-" (quote om-) (quote ((om-load-inputfun (quote input-funbox) "number or list" "ARG1" 0) (om-load-inputfun (quote input-funbox) "number or list" "ARG2" 0))) (om-make-point 355 375) nil nil nil nil 1))) (when (fboundp (quote set-active)) (set-active box nil)) box) (let ((box (om-load-boxcall (quote genfun) "LIST-MAX 2" (quote list-max) (quote ((om-load-inputfun (quote input-funbox) "a list" "SELF" (list 0 1 2)))) (om-make-point 339 298) nil nil nil nil 1))) (when (fboundp (quote set-active)) (set-active box nil)) box) (let ((box (om-load-boxcall (quote genfun) "LIST-MAX" (quote list-max) (quote ((om-load-inputfun (quote input-funbox) "a list" "SELF" (list 0 1 2)))) (om-make-point 346 185) nil nil nil nil 1))) (when (fboundp (quote set-active)) (set-active box nil)) box) (let ((box (om-load-boxcomment "comment" (om-make-point 130 45) (quote "index into function,$and iteration control") "" (om-make-point 346 55) nil (om-make-color 0 0 0) (om-make-font "Liberation Sans" 12 :family "Liberation Sans" :style (quote (:plain)) :mode (quote nil))))) (when (fboundp (quote set-active)) (set-active box nil)) box) (let ((box (om-load-boxcall (quote genfun) "OM*" (quote om*) (quote ((om-load-inputfun (quote input-funbox) "number or list" "ARG1" (quote a)) (om-load-inputfun (quote input-funbox) "number or list" "ARG2" (quote b)))) (om-make-point 389 255) nil nil nil nil 1))) (when (fboundp (quote set-active)) (set-active box nil)) box) (let ((box (om-load-boxcall (quote slot) "slots" (quote bpf) (quote ((om-load-inputfun (quote input-funbox) "object" "self" nil) (om-load-inputfun (quote input-funbox) "X coordinates (list)" "x-points" (list 0 100)) (om-load-inputfun (quote input-funbox) "Y coordinates (list)" "y-points" (list 0 100)) (om-load-inputfun (quote input-funbox) "precision (integer) [0 - 10]" "decimals" 0))) (om-make-point 244 139) nil nil nil nil 4))) (when (fboundp (quote set-active)) (set-active box nil)) box) (let ((box (om-load-boxcall (quote bastype) "aux 3" (quote t) (quote nil) (om-make-point 432 106) (om-make-point 27 32) 0 "0" nil))) (when (fboundp (quote set-active)) (set-active box nil)) box) (let ((box (om-load-boxcall (quote genfun) "OM/" (quote om/) (quote ((om-load-inputfun (quote input-funbox) "number or list" "ARG1" (quote x)) (om-load-inputfun (quote input-funbox) "number or list" "ARG2" (quote y)))) (om-make-point 473 212) nil nil nil nil 1))) (when (fboundp (quote set-active)) (set-active box nil)) box) (let ((box (om-load-boxcall (quote genfun) "for" (quote forloop) (quote ((om-load-inputfun (quote input-funbox) "low value" "FROM" 0) (om-load-inputfun (quote input-funbox) "high value" "TO" 10))) (om-make-point 440 149) nil nil nil nil 1))) (when (fboundp (quote set-active)) (set-active box nil)) box) (let ((box (om-load-boxcall (quote genfun) "X-TRANSFER" (quote x-transfer) (quote ((om-load-inputfun (quote input-funbox) "a list or BPF" "SELF" nil) (om-load-inputfun (quote input-funbox) "X value" "X-VAL" (list 0 100)))) (om-make-point 210 295) nil nil "&" nil 1))) (when (fboundp (quote set-active)) (set-active box nil)) box) (let ((box (om-load-boxcall (quote bastype) "aux 2" (quote t) (quote nil) (om-make-point 283 396) (om-make-point 56 32) (quote blacks) "blacks" nil))) (when (fboundp (quote set-active)) (set-active box nil)) box) (let ((box (om-load-boxcall (quote bastype) "aux" (quote t) (quote nil) (om-make-point 157 394) (om-make-point 56 32) (quote whites) "whites" nil))) (when (fboundp (quote set-active)) (set-active box nil)) box) (let ((box (om-load-boxcall (quote genfun) "collect" (quote listing) (quote ((om-load-inputfun (quote input-funbox) "anything" "DATA" nil))) (om-make-point 76 445) nil nil nil nil 3))) (when (fboundp (quote set-active)) (set-active box nil)) box) (let ((box (om-load-boxcall (quote genfun) "P-NEXT" (quote p-next) (quote ((om-load-inputfun (quote input-funbox) "pattern" "OBJ" nil))) (om-make-point 79 351) nil nil nil nil 1))) (when (fboundp (quote set-active)) (set-active box nil)) box) (let ((box (om-load-boxin "n (how many)" 2 (om-make-point 475 69) "" "n (how many)" nil nil))) (when (fboundp (quote set-active)) (set-active box nil)) box) (let ((box (om-load-boxin "function" 1 (om-make-point 209 71) "" "function" nil nil))) (when (fboundp (quote set-active)) (set-active box nil)) box) (let ((box (om-load-boxin "note pattern" 0 (om-make-point 65 70) "" "note pattern" nil nil))) (when (fboundp (quote set-active)) (set-active box nil)) box) (let ((box (om-load-seqbox "finally" (quote finaldo) (quote ((om-load-inputfun (quote input-funbox) "value to return" "VAL" nil))) (om-make-point 142 574) nil nil nil 0))) (when (fboundp (quote set-active)) (set-active box nil)) box) (let ((box (om-load-seqbox "eachTime" (quote loopdo) (quote ((om-load-inputfun (quote input-funbox) "operations to do" "OP" nil) (om-load-inputfun (quote input-funbox) "other oprations" "MORE" nil))) (om-make-point 42 574) nil nil nil 0))) (when (fboundp (quote set-active)) (set-active box nil)) box)) (quote ((17 0 0 0 nil 0) (15 0 0 1 nil 0) (16 0 1 0 nil 0) (6 0 1 1 nil 0) (0 0 5 0 nil 0) (1 0 5 1 nil 0) (7 0 6 0 nil 0) (15 0 6 1 nil 2) (11 2 7 0 nil 2) (11 1 8 0 nil 1) (8 0 10 0 nil 0) (13 0 10 1 nil 0) (21 0 11 0 nil 0) (14 0 13 0 nil 0) (20 0 13 1 nil 0) (12 0 14 0 nil 0) (20 0 14 1 nil 0) (11 0 15 0 nil 0) (10 0 15 1 nil 0) (19 0 18 0 nil 0) (22 0 19 0 nil 0) (18 1 23 0 nil 0) (5 0 24 0 nil 2) (18 0 24 1 nil 0))) 1 "omloop 2" nil))) (when (fboundp (quote set-active)) (set-active box nil)) box) (let ((box (om-load-boxcomment "comment" (om-make-point 141 60) (quote "function to lookup$dynamically changing$weight over time") "" (om-make-point 517 259) nil (om-make-color 0 0 0) (om-make-font "Liberation Sans" 12 :family "Liberation Sans" :style (quote (:plain)) :mode (quote nil))))) (when (fboundp (quote set-active)) (set-active box nil)) box) (let ((box (om-load-boxcall (quote bastype) "aux 4" (quote t) (quote nil) (om-make-point 498 208) (om-make-point 93 32) (list 0 0 100 100) "(0 0 100 100)" nil))) (when (fboundp (quote set-active)) (set-active box nil)) box) (let ((box (om-load-boxcall (quote bastype) "aux 3" (quote t) (quote nil) (om-make-point 394 207) (om-make-point 93 32) (list 0 30 70 100) "(0 30 70 100)" nil))) (when (fboundp (quote set-active)) (set-active box nil)) box) (let ((box (om-load-editor-box1 "BPF" (quote bpf) (quote ((om-load-inputfun (quote input-funbox) "object" "self" nil) (om-load-inputfun (quote input-funbox) "X coordinates (list)" "x-points" (list 0 100)) (om-load-inputfun (quote input-funbox) "Y coordinates (list)" "y-points" (list 0 100)) (om-load-inputfun (quote input-funbox) "precision (integer) [0 - 10]" "decimals" 0))) (om-make-point 461 251) (om-make-point 49 66) (let ((newobj (when (find-class (quote bpf) nil) (let ((newbpf (simple-bpf-from-list (quote (0 19 70 100)) (quote (0 0 100 100)) (quote bpf) 0))) (setf (bpfcolor newbpf) (om-make-color 0 0 0)) (set-name newbpf "BPF") newbpf)))) (when newobj) newobj) "x" nil (pairlis (quote (picture winpos winsize)) (list nil (om-make-point 0 0) (om-make-point 1072 665))) t nil nil nil (quote nil)))) (when (fboundp (quote set-active)) (set-active box nil)) box) (let ((box (om-load-boxcall (quote bastype) "aux 2" (quote t) (quote nil) (om-make-point 317 95) (om-make-point 56 32) (quote blacks) "blacks" nil))) (when (fboundp (quote set-active)) (set-active box nil)) box) (let ((box (om-load-boxcall (quote bastype) "aux" (quote t) (quote nil) (om-make-point 249 95) (om-make-point 56 32) (quote whites) "whites" nil))) (when (fboundp (quote set-active)) (set-active box nil)) box) (let ((box (om-load-boxcomment "comment" (om-make-point 442 57) (quote "Changing weighting probabilities as a function of time.$Introducing 'pval'") "" (om-make-point 83 10) nil (om-make-color 0 0 0) (om-make-font "Liberation Sans" 15.998697916666666D0 :family "Liberation Sans" :style (quote (:bold)) :mode (quote nil))))) (when (fboundp (quote set-active)) (set-active box nil)) box) (let ((box (om-load-boxcall (quote genfun) "ARITHM-SER" (quote arithm-ser) (quote ((om-load-inputfun (quote input-funbox) "begin" "BEGIN" 0) (om-load-inputfun (quote input-funbox) "end " "END" 10) (om-load-inputfun (quote input-funbox) "step" "STEP" 1))) (om-make-point 91 149) nil nil nil nil 1))) (when (fboundp (quote set-active)) (set-active box nil)) box) (let ((box (om-load-boxcall (quote bastype) "aux 8" (quote t) (quote nil) (om-make-point 80 97) (om-make-point 48 32) 4600 "4600" nil))) (when (fboundp (quote set-active)) (set-active box nil)) box) (let ((box (om-load-boxcall (quote bastype) "aux 9" (quote t) (quote nil) (om-make-point 130 97) (om-make-point 48 32) 8400 "8400" nil))) (when (fboundp (quote set-active)) (set-active box nil)) box) (let ((box (om-load-boxcall (quote bastype) "aux 10" (quote t) (quote nil) (om-make-point 180 97) (om-make-point 41 32) 100 "100" nil))) (when (fboundp (quote set-active)) (set-active box nil)) box) (let ((box (om-load-boxwithed1 (quote box-with-win) "OMLOOP" (quote omloop) (quote ((om-load-inputfun (quote input-funbox) "" "input0" nil) (om-load-inputfun (quote input-funbox) "" "input" nil) (om-load-inputfun (quote input-funbox) "" "input 2" nil))) (om-make-point 216 248) nil nil nil (list (let ((box (om-load-boxcomment "comment" (om-make-point 116 45) (quote "weight for 'white',$resp. 'black' keys") "" (om-make-point 523 106) nil (om-make-color 0 0 0) (om-make-font "Liberation Sans" 12 :family "Liberation Sans" :style (quote (:plain)) :mode (quote nil))))) (when (fboundp (quote set-active)) (set-active box nil)) box) (let ((box (om-load-boxin "input 2" 2 (om-make-point 523 164) "" nil nil nil))) (when (fboundp (quote set-active)) (set-active box nil)) box) (let ((box (om-load-boxcall (quote genfun) "collect" (quote listing) (quote ((om-load-inputfun (quote input-funbox) "anything" "DATA" nil))) (om-make-point 130 442) nil nil nil nil 3))) (when (fboundp (quote set-active)) (set-active box nil)) box) (let ((box (om-load-boxcall (quote genfun) "OMIF" (quote omif) (quote ((om-load-inputfun (quote input-funbox) "IF" "TEST" nil) (om-load-inputfun (quote input-funbox) "THEN" "ACTION" nil) (om-load-inputfun (quote input-funbox) "ELSE" "ELSE" nil))) (om-make-point 226 299) (om-make-point 213 58) nil nil nil 1))) (when (fboundp (quote set-active)) (set-active box nil)) box) (let ((box (om-load-boxin "input" 1 (om-make-point 466 127) "" nil nil nil))) (when (fboundp (quote set-active)) (set-active box nil)) box) (let ((box (om-load-boxcall (quote genfun) "P-W-NODE" (quote p-w-node) (quote ((om-load-inputfun (quote input-funbox) "" "X" nil) (om-load-inputkeyword (quote input-keyword) "" "weight" (quote :weight) 1 nil))) (om-make-point 86 358) (om-make-point 84 60) nil nil nil 1))) (when (fboundp (quote set-active)) (set-active box nil)) box) (let ((box (om-load-boxcall (quote lispfun) "MEMBER" (quote member) (quote ((om-load-inputfun (quote input-funbox) "ITEM" "ITEM" (quote n)) (om-load-inputfun (quote input-funbox) "LIST" "LIST" (quote a)))) (om-make-point 226 253) nil nil nil nil 1))) (when (fboundp (quote set-active)) (set-active box nil)) box) (let ((box (om-load-boxcall (quote genfun) "inlist" (quote listloop) (quote ((om-load-inputfun (quote input-funbox) "list to iterate" "LIST" nil))) (om-make-point 15 141) nil nil nil nil 1))) (when (fboundp (quote set-active)) (set-active box nil)) box) (let ((box (om-load-boxcall (quote bastype) "list 2" (quote list) (quote nil) (om-make-point 286 142) (om-make-point 176 32) (list 0 200 400 500 700 900 1100) "(0 200 400 500 700 900 1100)" nil))) (when (fboundp (quote set-active)) (set-active box nil)) box) (let ((box (om-load-boxcall (quote bastype) "aux" (quote t) (quote nil) (om-make-point 232 105) (om-make-point 48 32) 1200 "1200" nil))) (when (fboundp (quote set-active)) (set-active box nil)) box) (let ((box (om-load-boxcall (quote genfun) "OM//" (quote om//) (quote ((om-load-inputfun (quote input-funbox) "number or list" "N" 1) (om-load-inputfun (quote input-funbox) "number or list" "DIVISOR" 1))) (om-make-point 209 162) nil nil nil nil 2))) (when (fboundp (quote set-active)) (set-active box nil)) box) (let ((box (om-load-boxin "input0" 0 (om-make-point 5 40) "" nil nil nil))) (when (fboundp (quote set-active)) (set-active box nil)) box) (let ((box (om-load-seqbox "finally" (quote finaldo) (quote ((om-load-inputfun (quote input-funbox) "value to return" "VAL" nil))) (om-make-point 168 503) nil nil nil 0))) (when (fboundp (quote set-active)) (set-active box nil)) box) (let ((box (om-load-seqbox "eachTime" (quote loopdo) (quote ((om-load-inputfun (quote input-funbox) "operations to do" "OP" nil))) (om-make-point 68 503) nil nil nil 0))) (when (fboundp (quote set-active)) (set-active box nil)) box)) (quote ((5 0 2 0 nil 0) (6 0 3 0 nil 0) (4 0 3 1 nil 0) (1 0 3 2 nil 0) (7 0 5 0 nil 0) (3 0 5 1 nil 0) (10 1 6 0 nil 0) (8 0 6 1 nil 0) (11 0 7 0 nil 0) (7 0 10 0 nil 0) (9 0 10 1 nil 0) (2 1 12 0 nil 0) (2 0 13 0 nil 0))) 1 "omloop" nil))) (when (fboundp (quote set-active)) (set-active box nil)) box) (let ((box (om-load-boxcall (quote genfun) "P-WEIGHTING 2" (quote p-weighting) (quote ((om-load-inputfun (quote input-funbox) "" "OF" nil))) (om-make-point 202 321) nil nil nil nil 1))) (when (fboundp (quote set-active)) (set-active box nil)) box) (let ((box (om-load-editor-box1 "CHORD-SEQ" (quote chord-seq) (quote ((om-load-inputfun (quote input-funbox) "object" "self" nil) (om-load-inputfun (quote input-funbox) "pitches (mc): list or list of lists" "lmidic" (list 6000)) (om-load-inputfun (quote input-funbox) "onsets (ms): list" "lonset" (list 0 80)) (om-load-inputfun (quote input-funbox) "durations (ms): list or list of lists" "ldur" (list 1000)) (om-load-inputfun (quote input-funbox) "velocities (0-127): list or list of lists" "lvel" (list 100)) (om-load-inputfun (quote input-funbox) "offsets (ms): list or list of lists" "loffset" (list 0)) (om-load-inputfun (quote input-funbox) "MIDI channels (1-16): list or list of lists" "lchan" (list 1)) (om-load-inputfun (quote input-funbox) "relative chords duration (0-100)" "legato" 3000))) (om-make-point 80 487) (om-make-point 544 109) (let ((newobj (when (find-class (quote chord-seq) nil) (make-instance (quote chord-seq) :lmidic (quote ((6300) (8200) (6600) (4600) (4600) (7800) (8000) (6100) (5600) (4600) (6300) (7000) (6800) (8000) (6800) (6300) (6600) (7800) (4600) (8000) (6800) (6800) (6600) (6300) (7300) (8200) (8000) (5600) (4600) (8000) (4900) (6800) (7300) (7800) (7500) (5600) (5800) (4600) (6800) (7800) (5000) (5400) (5700) (6600) (4600) (5400) (5100) (7500) (5400) (4900) (6300) (4900) (8000) (6800) (4900) (7200) (6100) (7700) (5800) (5200) (8200) (4600) (5100) (5000) (7300) (8300) (5100) (8100) (7600) (6800) (5800) (4900) (5000) (5900) (7300) (6300) (4900) (6600) (6000) (6000) (7400) (7100) (5500) (7900) (5100) (7400) (7900) (6700) (7600) (6400) (5600) (7900) (5300) (5200) (5300) (5900) (7200) (5500) (6500) (5800) (7200) (5200) (6900) (7700) (5000) (5900) (7500) (7400) (7800) (6700) (8400) (6900) (7700) (6400) (7700) (5500) (5700) (5900) (4700) (7100) (6200))) :lonset (quote (0 80 160 240 320 400 480 560 640 720 800 880 960 1040 1120 1200 1280 1360 1440 1520 1600 1680 1760 1840 1920 2000 2080 2160 2240 2320 2400 2480 2560 2640 2720 2800 2880 2960 3040 3120 3200 3280 3360 3440 3520 3600 3680 3760 3840 3920 4000 4080 4160 4240 4320 4400 4480 4560 4640 4720 4800 4880 4960 5040 5120 5200 5280 5360 5440 5520 5600 5680 5760 5840 5920 6000 6080 6160 6240 6320 6400 6480 6560 6640 6720 6800 6880 6960 7040 7120 7200 7280 7360 7440 7520 7600 7680 7760 7840 7920 8000 8080 8160 8240 8320 8400 8480 8560 8640 8720 8800 8880 8960 9040 9120 9200 9280 9360 9440 9520 9600 12000)) :ldur (quote ((2400) (2400) (2400) (2400) (2400) (2400) (2400) (2400) (2400) (2400) (2400) (2400) (2400) (2400) (2400) (2400) (2400) (2400) (2400) (2400) (2400) (2400) (2400) (2400) (2400) (2400) (2400) (2400) (2400) (2400) (2400) (2400) (2400) (2400) (2400) (2400) (2400) (2400) (2400) (2400) (2400) (2400) (2400) (2400) (2400) (2400) (2400) (2400) (2400) (2400) (2400) (2400) (2400) (2400) (2400) (2400) (2400) (2400) (2400) (2400) (2400) (2400) (2400) (2400) (2400) (2400) (2400) (2400) (2400) (2400) (2400) (2400) (2400) (2400) (2400) (2400) (2400) (2400) (2400) (2400) (2400) (2400) (2400) (2400) (2400) (2400) (2400) (2400) (2400) (2400) (2400) (2400) (2400) (2400) (2400) (2400) (2400) (2400) (2400) (2400) (2400) (2400) (2400) (2400) (2400) (2400) (2400) (2400) (2400) (2400) (2400) (2400) (2400) (2400) (2400) (2400) (2400) (2400) (2400) (2400) (2400))) :lvel (quote ((100) (100) (100) (100) (100) (100) (100) (100) (100) (100) (100) (100) (100) (100) (100) (100) (100) (100) (100) (100) (100) (100) (100) (100) (100) (100) (100) (100) (100) (100) (100) (100) (100) (100) (100) (100) (100) (100) (100) (100) (100) (100) (100) (100) (100) (100) (100) (100) (100) (100) (100) (100) (100) (100) (100) (100) (100) (100) (100) (100) (100) (100) (100) (100) (100) (100) (100) (100) (100) (100) (100) (100) (100) (100) (100) (100) (100) (100) (100) (100) (100) (100) (100) (100) (100) (100) (100) (100) (100) (100) (100) (100) (100) (100) (100) (100) (100) (100) (100) (100) (100) (100) (100) (100) (100) (100) (100) (100) (100) (100) (100) (100) (100) (100) (100) (100) (100) (100) (100) (100) (100))) :loffset (quote ((0) (0) (0) (0) (0) (0) (0) (0) (0) (0) (0) (0) (0) (0) (0) (0) (0) (0) (0) (0) (0) (0) (0) (0) (0) (0) (0) (0) (0) (0) (0) (0) (0) (0) (0) (0) (0) (0) (0) (0) (0) (0) (0) (0) (0) (0) (0) (0) (0) (0) (0) (0) (0) (0) (0) (0) (0) (0) (0) (0) (0) (0) (0) (0) (0) (0) (0) (0) (0) (0) (0) (0) (0) (0) (0) (0) (0) (0) (0) (0) (0) (0) (0) (0) (0) (0) (0) (0) (0) (0) (0) (0) (0) (0) (0) (0) (0) (0) (0) (0) (0) (0) (0) (0) (0) (0) (0) (0) (0) (0) (0) (0) (0) (0) (0) (0) (0) (0) (0) (0) (0))) :lchan (quote ((1) (1) (1) (1) (1) (1) (1) (1) (1) (1) (1) (1) (1) (1) (1) (1) (1) (1) (1) (1) (1) (1) (1) (1) (1) (1) (1) (1) (1) (1) (1) (1) (1) (1) (1) (1) (1) (1) (1) (1) (1) (1) (1) (1) (1) (1) (1) (1) (1) (1) (1) (1) (1) (1) (1) (1) (1) (1) (1) (1) (1) (1) (1) (1) (1) (1) (1) (1) (1) (1) (1) (1) (1) (1) (1) (1) (1) (1) (1) (1) (1) (1) (1) (1) (1) (1) (1) (1) (1) (1) (1) (1) (1) (1) (1) (1) (1) (1) (1) (1) (1) (1) (1) (1) (1) (1) (1) (1) (1) (1) (1) (1) (1) (1) (1) (1) (1) (1) (1) (1) (1))) :legato 3000)))) (load-port-info newobj (quote ((0) (0) (0) (0) (0) (0) (0) (0) (0) (0) (0) (0) (0) (0) (0) (0) (0) (0) (0) (0) (0) (0) (0) (0) (0) (0) (0) (0) (0) (0) (0) (0) (0) (0) (0) (0) (0) (0) (0) (0) (0) (0) (0) (0) (0) (0) (0) (0) (0) (0) (0) (0) (0) (0) (0) (0) (0) (0) (0) (0) (0) (0) (0) (0) (0) (0) (0) (0) (0) (0) (0) (0) (0) (0) (0) (0) (0) (0) (0) (0) (0) (0) (0) (0) (0) (0) (0) (0) (0) (0) (0) (0) (0) (0) (0) (0) (0) (0) (0) (0) (0) (0) (0) (0) (0) (0) (0) (0) (0) (0) (0) (0) (0) (0) (0) (0) (0) (0) (0) (0) (0)))) (init-mus-color newobj (quote nil)) (set-extra-pairs newobj (quote nil)) (set-patch-pairs newobj (quote nil)) (set-name newobj nil) (set-tonalite newobj nil) newobj) nil nil (pairlis (quote (measure onset approx fontsize staff cmnpref deltapict outport inport player zoom notechancolor? grillestep mode winsize winpos score-mode obj-mode cursor-mode show-stems scale)) (list nil nil 2 24 (quote g) (let ((newobj (make-instance (quote edition-values)))) (setf (paper-size newobj) (om-make-point 600 800)) (setf (top-margin newobj) 2) (setf (left-margin newobj) 1) (setf (right-margin newobj) 1) (setf (bottom-margin newobj) 1) (setf (orientation newobj) nil) (setf (scale newobj) nil) (setf (system-space newobj) (quote (1))) (setf (system-color newobj) (quote nil)) (setf (line-space newobj) 1) (setf (title newobj) nil) (setf (show-title? newobj) nil) (setf (show-page? newobj) nil) (setf (sheet-id newobj) nil) (setf (page-mode newobj) nil) newobj) (om-make-point 0 0) nil nil (quote :fluidsynth) 37/50 nil 1000 0 (om-make-point 1197 414) (om-make-point 0 0) 0 1 (quote :normal) (quote t) nil)) t nil nil nil (quote nil)))) (when (fboundp (quote set-active)) (set-active box nil)) box) (let ((box (om-load-boxcomment "comment" (om-make-point 116 45) (quote "weight for 'white',$resp. 'black' keys") "" (om-make-point 316 55) nil (om-make-color 0 0 0) (om-make-font "Liberation Sans" 12 :family "Liberation Sans" :style (quote (:plain)) :mode (quote nil))))) (when (fboundp (quote set-active)) (set-active box nil)) box) (let ((box (om-load-boxcomment "comment" (om-make-point 108 30) (quote "chromatic scale") "" (om-make-point 66 68) nil (om-make-color 0 0 0) (om-make-font "Liberation Sans" 12 :family "Liberation Sans" :style (quote (:plain)) :mode (quote nil))))) (when (fboundp (quote set-active)) (set-active box nil)) box))) (quote ((16 0 6 0 nil 0) (17 0 7 0 nil 0) (24 0 11 0 nil 0) (15 0 11 1 nil 0) (10 0 11 2 nil 0) (14 0 15 1 nil 0) (13 0 15 2 nil 0) (20 0 19 0 nil 0) (21 0 19 1 nil 0) (22 0 19 2 nil 0) (19 0 23 0 nil 0) (7 0 23 1 nil 0) (6 0 23 2 nil 0) (23 0 24 0 nil 0) (11 0 25 1 nil 0))) nil 7.04))
