; OM File Header - Saved 2017/08/01 13:59:25
; (6.120001 :patc (om-make-point 141 70) (om-make-point 0 0) (om-make-point 1408 669) "" 183 0 nil "2017/08/01 13:57:24")
; End File Header
(in-package :om)(load-lib-for (quote ("Patterns")))(setf *om-current-persistent* (om-load-patch1 "006 b - markovanalyze" (quote ((let ((box (om-load-boxcall (quote genfun) "P-MARKOV-ANALYZE 2" (quote p-markov-analyze) (quote ((om-load-inputfun (quote input-funbox) "" "SEQ" nil) (om-load-inputkeyword (quote input-keyword) "" "order" (quote :order) nil nil))) (om-make-point 172 208) nil nil nil nil 1))) (when (fboundp (quote set-active)) (set-active box nil)) box) (let ((box (om-load-boxcomment "comment" (om-make-point 378 615) (quote "markov-analyze supports the following keyword arguments:$$:order number$$    The order of the Markov analysis, defaults to 1. $$:print {true | :table | :pattern | false}$$    If the value is true (the default) then two results are$    printed, a transition table and a pattern description. The$    transition table that is printer details the distribution of$    inputs and outputs in the data. The pattern description that$    is printed will instantiate that table if it is$    evalutated. If :print is just :table or :pattern then only$    that form of the analysis is printed. If :print is false then$    no analysis is printed.$$:pattern {false | true}$$    If false (the default) then markov-analyze does not return$    values. If :pattern? is true then a markov pattern based on$    the analysis transition table is returned.$$:key function$$    A Lisp function to apply to each item in sequence. function$    should take one argument and return the actual datum to be$    analyzed.$$:sort {list | function}$$    Specifies the order of labels in the columns and rows of the$    table. If a list of labels is specified its ordering$    determines the column order of the table. If :sort is a$    function it is passed to sort to sort the table labels.$$:decimals number$$    Specifies the number of decimals to use when printing the$    table. Defaults to 3.") nil (om-make-point 911 7) nil (om-make-color 0 0 0) (om-make-font "Liberation Sans" 12 :family "Liberation Sans" :style (quote (:plain)) :mode (quote nil))))) (when (fboundp (quote set-active)) (set-active box nil)) box) (let ((box (om-load-boxcomment "comment" (om-make-point 429 75) (quote "(markov-analyze list [:order i] [:print? b] [:pattern? b] [:key l])$$Performs an analysis of elements in list and prints or returns the results$as a p-markov pattern") "" (om-make-point 420 60) nil (om-make-color 0 0 0) (om-make-font "Liberation Sans" 12 :family "Liberation Sans" :style (quote (:plain)) :mode (quote nil))))) (when (fboundp (quote set-active)) (set-active box nil)) box) (let ((box (om-load-boxcomment "comment" (om-make-point 155 38) (quote "p-markov-analyze") nil (om-make-point 420 20) nil (om-make-color 0 0 0) (om-make-font "Liberation Sans" 15.998697916666666D0 :family "Liberation Sans" :style (quote (:bold)) :mode (quote nil))))) (when (fboundp (quote set-active)) (set-active box nil)) box) (let ((box (om-load-boxcomment "comment" (om-make-point 115 45) (quote "1st order markov,$try 2,3..") "" (om-make-point 297 155) nil (om-make-color 0 0 0) (om-make-font "Liberation Sans" 12 :family "Liberation Sans" :style (quote (:plain)) :mode (quote nil))))) (when (fboundp (quote set-active)) (set-active box nil)) box) (let ((box (om-load-boxcomment "comment" (om-make-point 94 45) (quote "analyze data,$return pattern") "" (om-make-point 57 226) nil (om-make-color 0 0 0) (om-make-font "Liberation Sans" 12 :family "Liberation Sans" :style (quote (:plain)) :mode (quote nil))))) (when (fboundp (quote set-active)) (set-active box nil)) box) (let ((box (om-load-boxcomment "comment" (om-make-point 94 30) (quote "input material") "" (om-make-point 60 80) nil (om-make-color 0 0 0) (om-make-font "Liberation Sans" 12 :family "Liberation Sans" :style (quote (:plain)) :mode (quote nil))))) (when (fboundp (quote set-active)) (set-active box nil)) box) (let ((box (om-load-boxcall (quote bastype) "aux 9" (quote t) (quote nil) (om-make-point 531 331) (om-make-point 41 32) 100 "100" nil))) (when (fboundp (quote set-active)) (set-active box nil)) box) (let ((box (om-load-boxcall (quote genfun) "OM*" (quote om*) (quote ((om-load-inputfun (quote input-funbox) "number or list" "ARG1" (quote n)) (om-load-inputfun (quote input-funbox) "number or list" "ARG2" 100))) (om-make-point 471 371) nil nil nil nil 1))) (when (fboundp (quote set-active)) (set-active box nil)) box) (let ((box (om-load-boxcall (quote bastype) "aux 7" (quote t) (quote nil) (om-make-point 203 20) (om-make-point 34 32) 84 "84" nil))) (when (fboundp (quote set-active)) (set-active box nil)) box) (let ((box (om-load-boxcall (quote bastype) "aux 6" (quote t) (quote nil) (om-make-point 163 20) (om-make-point 34 32) 48 "48" nil))) (when (fboundp (quote set-active)) (set-active box nil)) box) (let ((box (om-load-boxcall (quote genfun) "OM-RANDOM" (quote om-random) (quote ((om-load-inputfun (quote input-funbox) "min" "LOW" 0) (om-load-inputfun (quote input-funbox) "max" "HIGH" 1))) (om-make-point 161 60) nil nil nil nil 1))) (when (fboundp (quote set-active)) (set-active box nil)) box) (let ((box (om-load-editor-box1 "CHORD-SEQ 2" (quote chord-seq) (quote ((om-load-inputfun (quote input-funbox) "object" "self" nil) (om-load-inputfun (quote input-funbox) "pitches (mc): list or list of lists" "lmidic" (list 6000)) (om-load-inputfun (quote input-funbox) "onsets (ms): list" "lonset" (list 0 100)) (om-load-inputfun (quote input-funbox) "durations (ms): list or list of lists" "ldur" (list 1000)) (om-load-inputfun (quote input-funbox) "velocities (0-127): list or list of lists" "lvel" (list 100)) (om-load-inputfun (quote input-funbox) "offsets (ms): list or list of lists" "loffset" (list 0)) (om-load-inputfun (quote input-funbox) "MIDI channels (1-16): list or list of lists" "lchan" (list 1)) (om-load-inputfun (quote input-funbox) "relative chords duration (0-100)" "legato" 300))) (om-make-point 343 432) (om-make-point 386 105) (let ((newobj (when (find-class (quote chord-seq) nil) (make-instance (quote chord-seq) :lmidic (quote ((7500) (7600) (5700) (7400) (6700) (6400) (4800) (7500) (7600) (5700) (7400) (6700) (7200) (7200) (7400) (6700) (6400) (4800) (7100) (6100) (6700) (5300) (7100) (8000) (7400) (8300) (6300) (8400) (5600) (4800) (7500) (7600) (5700) (7400) (8300) (6300) (8400) (5600) (4800) (7100) (6100) (6700) (7200) (7400) (6700) (6400) (4800) (7100) (6100) (6700) (7200) (7400) (6700) (5300) (7100) (8000) (7400) (7700) (6700) (5300) (7100) (6100) (6700) (7200) (7200) (7400) (6700) (6400) (4800) (7500) (7600) (5700) (7400) (8300) (6300) (8400) (5600) (4800) (7500) (7600) (5700) (7400) (7700) (6700) (5300) (7100) (8000) (7400) (7700) (6700) (5300) (7100) (6100) (6700) (6400) (4800) (7500) (7600) (5700) (7400))) :lonset (quote (0 100 200 300 400 500 600 700 800 900 1000 1100 1200 1300 1400 1500 1600 1700 1800 1900 2000 2100 2200 2300 2400 2500 2600 2700 2800 2900 3000 3100 3200 3300 3400 3500 3600 3700 3800 3900 4000 4100 4200 4300 4400 4500 4600 4700 4800 4900 5000 5100 5200 5300 5400 5500 5600 5700 5800 5900 6000 6100 6200 6300 6400 6500 6600 6700 6800 6900 7000 7100 7200 7300 7400 7500 7600 7700 7800 7900 8000 8100 8200 8300 8400 8500 8600 8700 8800 8900 9000 9100 9200 9300 9400 9500 9600 9700 9800 9900 10200)) :ldur (quote ((300) (300) (300) (300) (300) (300) (300) (300) (300) (300) (300) (300) (300) (300) (300) (300) (300) (300) (300) (300) (300) (300) (300) (300) (300) (300) (300) (300) (300) (300) (300) (300) (300) (300) (300) (300) (300) (300) (300) (300) (300) (300) (300) (300) (300) (300) (300) (300) (300) (300) (300) (300) (300) (300) (300) (300) (300) (300) (300) (300) (300) (300) (300) (300) (300) (300) (300) (300) (300) (300) (300) (300) (300) (300) (300) (300) (300) (300) (300) (300) (300) (300) (300) (300) (300) (300) (300) (300) (300) (300) (300) (300) (300) (300) (300) (300) (300) (300) (300) (300))) :lvel (quote ((100) (100) (100) (100) (100) (100) (100) (100) (100) (100) (100) (100) (100) (100) (100) (100) (100) (100) (100) (100) (100) (100) (100) (100) (100) (100) (100) (100) (100) (100) (100) (100) (100) (100) (100) (100) (100) (100) (100) (100) (100) (100) (100) (100) (100) (100) (100) (100) (100) (100) (100) (100) (100) (100) (100) (100) (100) (100) (100) (100) (100) (100) (100) (100) (100) (100) (100) (100) (100) (100) (100) (100) (100) (100) (100) (100) (100) (100) (100) (100) (100) (100) (100) (100) (100) (100) (100) (100) (100) (100) (100) (100) (100) (100) (100) (100) (100) (100) (100) (100))) :loffset (quote ((0) (0) (0) (0) (0) (0) (0) (0) (0) (0) (0) (0) (0) (0) (0) (0) (0) (0) (0) (0) (0) (0) (0) (0) (0) (0) (0) (0) (0) (0) (0) (0) (0) (0) (0) (0) (0) (0) (0) (0) (0) (0) (0) (0) (0) (0) (0) (0) (0) (0) (0) (0) (0) (0) (0) (0) (0) (0) (0) (0) (0) (0) (0) (0) (0) (0) (0) (0) (0) (0) (0) (0) (0) (0) (0) (0) (0) (0) (0) (0) (0) (0) (0) (0) (0) (0) (0) (0) (0) (0) (0) (0) (0) (0) (0) (0) (0) (0) (0) (0))) :lchan (quote ((1) (1) (1) (1) (1) (1) (1) (1) (1) (1) (1) (1) (1) (1) (1) (1) (1) (1) (1) (1) (1) (1) (1) (1) (1) (1) (1) (1) (1) (1) (1) (1) (1) (1) (1) (1) (1) (1) (1) (1) (1) (1) (1) (1) (1) (1) (1) (1) (1) (1) (1) (1) (1) (1) (1) (1) (1) (1) (1) (1) (1) (1) (1) (1) (1) (1) (1) (1) (1) (1) (1) (1) (1) (1) (1) (1) (1) (1) (1) (1) (1) (1) (1) (1) (1) (1) (1) (1) (1) (1) (1) (1) (1) (1) (1) (1) (1) (1) (1) (1))) :legato 300)))) (load-port-info newobj (quote ((0) (0) (0) (0) (0) (0) (0) (0) (0) (0) (0) (0) (0) (0) (0) (0) (0) (0) (0) (0) (0) (0) (0) (0) (0) (0) (0) (0) (0) (0) (0) (0) (0) (0) (0) (0) (0) (0) (0) (0) (0) (0) (0) (0) (0) (0) (0) (0) (0) (0) (0) (0) (0) (0) (0) (0) (0) (0) (0) (0) (0) (0) (0) (0) (0) (0) (0) (0) (0) (0) (0) (0) (0) (0) (0) (0) (0) (0) (0) (0) (0) (0) (0) (0) (0) (0) (0) (0) (0) (0) (0) (0) (0) (0) (0) (0) (0) (0) (0) (0)))) (init-mus-color newobj (quote nil)) (set-extra-pairs newobj (quote nil)) (set-patch-pairs newobj (quote nil)) (set-name newobj nil) (set-tonalite newobj nil) newobj) nil nil (pairlis (quote (approx fontsize staff cmnpref deltapict outport inport player zoom notechancolor? grillestep mode winsize winpos score-mode obj-mode cursor-mode show-stems scale)) (list 2 24 (quote g) (let ((newobj (make-instance (quote edition-values)))) (setf (paper-size newobj) (om-make-point 600 800)) (setf (top-margin newobj) 2) (setf (left-margin newobj) 1) (setf (right-margin newobj) 1) (setf (bottom-margin newobj) 1) (setf (orientation newobj) nil) (setf (scale newobj) nil) (setf (system-space newobj) (quote (1))) (setf (system-color newobj) (quote nil)) (setf (line-space newobj) 1) (setf (title newobj) nil) (setf (show-title? newobj) nil) (setf (show-page? newobj) nil) (setf (sheet-id newobj) nil) (setf (page-mode newobj) nil) newobj) (om-make-point 0 0) nil nil (quote :midi-player) 1 nil 1000 0 (om-make-point 370 280) (om-make-point 400 20) 0 1 (quote :normal) (quote t) nil)) t nil nil nil))) (when (fboundp (quote set-active)) (set-active box nil)) box) (let ((box (om-load-boxcall (quote bastype) "aux 8" (quote t) (quote nil) (om-make-point 290 256) (om-make-point 41 32) 100 "100" nil))) (when (fboundp (quote set-active)) (set-active box nil)) box) (let ((box (om-load-boxcall (quote genfun) "P-NEXT" (quote p-next) (quote ((om-load-inputfun (quote input-funbox) "pattern" "OBJ" nil) (om-load-inputfun (quote input-funbox) "pattern" "NUM" nil))) (om-make-point 209 296) nil nil nil nil 1))) (when (fboundp (quote set-active)) (set-active box nil)) box) (let ((box (om-load-editor-box1 "BPF" (quote bpf) (quote ((om-load-inputfun (quote input-funbox) "object" "self" nil) (om-load-inputfun (quote input-funbox) "X coordinates (list)" "x-points" (list 0 100)) (om-load-inputfun (quote input-funbox) "Y coordinates (list)" "y-points" (list 0 100)) (om-load-inputfun (quote input-funbox) "precision (integer) [0 - 10]" "decimals" 0))) (om-make-point 397 221) (om-make-point 198 93) (let ((newobj (when (find-class (quote bpf) nil) (let ((newbpf (simple-bpf-from-list (quote (0 100 200 300 400 500 600 700 800 900 1000 1100 1200 1300 1400 1500 1600 1700 1800 1900 2000 2100 2200 2300 2400 2500 2600 2700 2800 2900 3000 3100 3200 3300 3400 3500 3600 3700 3800 3900 4000 4100 4200 4300 4400 4500 4600 4700 4800 4900 5000 5100 5200 5300 5400 5500 5600 5700 5800 5900 6000 6100 6200 6300 6400 6500 6600 6700 6800 6900 7000 7100 7200 7300 7400 7500 7600 7700 7800 7900 8000 8100 8200 8300 8400 8500 8600 8700 8800 8900 9000 9100 9200 9300 9400 9500 9600 9700 9800 9900)) (quote (75 76 57 74 67 64 48 75 76 57 74 67 72 72 74 67 64 48 71 61 67 53 71 80 74 83 63 84 56 48 75 76 57 74 83 63 84 56 48 71 61 67 72 74 67 64 48 71 61 67 72 74 67 53 71 80 74 77 67 53 71 61 67 72 72 74 67 64 48 75 76 57 74 83 63 84 56 48 75 76 57 74 77 67 53 71 80 74 77 67 53 71 61 67 64 48 75 76 57 74)) (quote bpf) 0))) (setf (bpfcolor newbpf) (om-make-color 0 0 0)) (set-name newbpf nil) newbpf)))) (when newobj) newobj) nil nil (pairlis (quote (picture winpos winsize)) (list nil (om-make-point 0 0) (om-make-point 729 500))) t nil nil nil))) (when (fboundp (quote set-active)) (set-active box nil)) box) (let ((box (om-load-boxcall (quote bastype) "aux 4" (quote t) (quote nil) (om-make-point 243 90) (om-make-point 34 32) 24 "24" nil))) (when (fboundp (quote set-active)) (set-active box nil)) box) (let ((box (om-load-boxcall (quote genfun) "REPEAT-N" (quote repeat-n) (quote ((om-load-inputfun (quote input-funbox) "something" "SELF" nil) (om-load-inputfun (quote input-funbox) "times" "N" 0))) (om-make-point 168 131) (om-make-point 80 60) nil nil nil 1))) (when (fboundp (quote set-active)) (set-active box nil)) box) (let ((box (om-load-boxcall (quote bastype) "aux 3" (quote t) (quote nil) (om-make-point 253 168) (om-make-point 27 32) 1 "1" nil))) (when (fboundp (quote set-active)) (set-active box nil)) box))) (quote ((17 0 0 0 nil 0) (18 0 0 1 nil 0) (15 2 8 0 nil 0) (7 0 8 1 nil 0) (10 0 11 0 nil 0) (9 0 11 1 nil 0) (8 0 12 1 nil 0) (0 0 14 0 nil 0) (13 0 14 1 nil 0) (14 0 15 2 nil 0) (11 0 17 0 nil 0) (16 0 17 1 nil 0))) nil 6.120001))
