; OM File Header - Saved 2017/08/01 15:34:00
; (6.120004 :patc (om-make-point 118 10) (om-make-point 0 0) (om-make-point 817 499) "" 183 0 nil "2017/08/01 15:34:00")
; End File Header
(in-package :om)(load-lib-for (quote ("Patterns")))(setf *om-current-persistent* (om-load-patch1 "009 b - rotating a descending whole-tone figure" (quote ((let ((box (om-load-boxcall (quote genfun) "P-RANGE 2" (quote p-range) (quote ((om-load-inputkeyword (quote input-keyword) "" "initially" (quote :initially) nil nil) (om-load-inputkeyword (quote input-keyword) "" "stepping" (quote :stepping) nil nil))) (om-make-point 18 195) nil nil nil nil 1))) (when (fboundp (quote set-active)) (set-active box nil)) box) (let ((box (om-load-boxcomment "comment" (om-make-point 148 45) (quote "descending whole-tone$scale stream") "" (om-make-point 61 78) nil (om-make-color 0 0 0) (om-make-font "Liberation Sans" 12 :family "Liberation Sans" :style (quote (:plain)) :mode (quote nil))))) (when (fboundp (quote set-active)) (set-active box nil)) box) (let ((box (om-load-boxcomment "comment" (om-make-point 66 30) (quote "rotations") "" (om-make-point 202 313) nil (om-make-color 0 0 0) (om-make-font "Liberation Sans" 12 :family "Liberation Sans" :style (quote (:plain)) :mode (quote nil))))) (when (fboundp (quote set-active)) (set-active box nil)) box) (let ((box (om-load-boxcall (quote bastype) "aux 8" (quote t) (quote nil) (om-make-point 517 236) (om-make-point 27 32) 0 "0" nil))) (when (fboundp (quote set-active)) (set-active box nil)) box) (let ((box (om-load-boxcall (quote lispfun) "LIST" (quote list) (quote ((om-load-inputfun (quote input-funbox) "add-input" "add-input" 0) (om-load-inputfun (quote input-funbox) "add-input" "add-input" (quote n)))) (om-make-point 532 269) nil nil nil nil 1))) (when (fboundp (quote set-active)) (set-active box nil)) box) (let ((box (om-load-editor-box1 "CHORD-SEQ" (quote chord-seq) (quote ((om-load-inputfun (quote input-funbox) "object" "self" nil) (om-load-inputfun (quote input-funbox) "pitches (mc): list or list of lists" "lmidic" (list 6000)) (om-load-inputfun (quote input-funbox) "onsets (ms): list" "lonset" (list 0 1000)) (om-load-inputfun (quote input-funbox) "durations (ms): list or list of lists" "ldur" (list 1000)) (om-load-inputfun (quote input-funbox) "velocities (0-127): list or list of lists" "lvel" (list 100)) (om-load-inputfun (quote input-funbox) "offsets (ms): list or list of lists" "loffset" (list 0)) (om-load-inputfun (quote input-funbox) "MIDI channels (1-16): list or list of lists" "lchan" (list 1)) (om-load-inputfun (quote input-funbox) "relative chords duration (0-100)" "legato" 0))) (om-make-point 323 361) (om-make-point 309 121) (let ((newobj (when (find-class (quote chord-seq) nil) (make-instance (quote chord-seq) :lmidic (quote ((9600) (7100) (7700) (9100) (9900) (7100) (7700) (9100) (9900) (9400) (9100) (9900) (9200) (7700) (7100) (9900) (9000) (7700) (7100) (9100) (7700) (7100) (9100) (8800) (9900) (7100) (9100) (8600) (9900) (7700) (8400) (9900) (7700) (9100) (7100) (9900) (7700) (9100) (7100) (8200) (9100) (7100) (8000) (7700) (9900) (7100) (7800) (7700) (9900) (9100) (7700) (9900) (9100) (7600) (7100) (9900) (9100) (7400) (7100) (7700) (7200) (7100) (7700) (9100) (9900) (7100) (7700) (9100) (9900) (7000) (9100) (9900) (6800) (7700) (7100) (9900) (6600) (7700) (7100) (9100) (7700) (7100) (9100) (6400) (9900) (7100) (9100) (6200) (9900) (7700) (6000) (9900) (7700) (9100) (7100) (9900) (7700) (9100) (7100) (5800) (9100) (7100) (5600) (7700) (9900) (7100) (5400) (7700) (9900) (9100) (7700) (9900) (9100) (5200) (7100) (9900) (9100) (5000) (7100) (7700) (4800))) :lonset (quote (0 100 200 300 400 500 600 700 800 900 1000 1100 1200 1300 1400 1500 1600 1700 1800 1900 2000 2100 2200 2300 2400 2500 2600 2700 2800 2900 3000 3100 3200 3300 3400 3500 3600 3700 3800 3900 4000 4100 4200 4300 4400 4500 4600 4700 4800 4900 5000 5100 5200 5300 5400 5500 5600 5700 5800 5900 6000 6100 6200 6300 6400 6500 6600 6700 6800 6900 7000 7100 7200 7300 7400 7500 7600 7700 7800 7900 8000 8100 8200 8300 8400 8500 8600 8700 8800 8900 9000 9100 9200 9300 9400 9500 9600 9700 9800 9900 10000 10100 10200 10300 10400 10500 10600 10700 10800 10900 11000 11100 11200 11300 11400 11500 11600 11700 11800 11900 12000 12400)) :ldur (quote ((400) (250) (250) (250) (250) (250) (250) (250) (250) (400) (250) (250) (400) (250) (250) (250) (400) (250) (250) (250) (250) (250) (250) (400) (250) (250) (250) (400) (250) (250) (400) (250) (250) (250) (250) (250) (250) (250) (250) (400) (250) (250) (400) (250) (250) (250) (400) (250) (250) (250) (250) (250) (250) (400) (250) (250) (250) (400) (250) (250) (400) (250) (250) (250) (250) (250) (250) (250) (250) (400) (250) (250) (400) (250) (250) (250) (400) (250) (250) (250) (250) (250) (250) (400) (250) (250) (250) (400) (250) (250) (400) (250) (250) (250) (250) (250) (250) (250) (250) (400) (250) (250) (400) (250) (250) (250) (400) (250) (250) (250) (250) (250) (250) (400) (250) (250) (250) (400) (250) (250) (400))) :lvel (quote ((90) (80) (80) (80) (80) (80) (80) (80) (80) (90) (80) (80) (90) (80) (80) (80) (90) (80) (80) (80) (80) (80) (80) (90) (80) (80) (80) (90) (80) (80) (90) (80) (80) (80) (80) (80) (80) (80) (80) (90) (80) (80) (90) (80) (80) (80) (90) (80) (80) (80) (80) (80) (80) (90) (80) (80) (80) (90) (80) (80) (90) (80) (80) (80) (80) (80) (80) (80) (80) (90) (80) (80) (90) (80) (80) (80) (90) (80) (80) (80) (80) (80) (80) (90) (80) (80) (80) (90) (80) (80) (90) (80) (80) (80) (80) (80) (80) (80) (80) (90) (80) (80) (90) (80) (80) (80) (90) (80) (80) (80) (80) (80) (80) (90) (80) (80) (80) (90) (80) (80) (90))) :loffset (quote ((0) (0) (0) (0) (0) (0) (0) (0) (0) (0) (0) (0) (0) (0) (0) (0) (0) (0) (0) (0) (0) (0) (0) (0) (0) (0) (0) (0) (0) (0) (0) (0) (0) (0) (0) (0) (0) (0) (0) (0) (0) (0) (0) (0) (0) (0) (0) (0) (0) (0) (0) (0) (0) (0) (0) (0) (0) (0) (0) (0) (0) (0) (0) (0) (0) (0) (0) (0) (0) (0) (0) (0) (0) (0) (0) (0) (0) (0) (0) (0) (0) (0) (0) (0) (0) (0) (0) (0) (0) (0) (0) (0) (0) (0) (0) (0) (0) (0) (0) (0) (0) (0) (0) (0) (0) (0) (0) (0) (0) (0) (0) (0) (0) (0) (0) (0) (0) (0) (0) (0) (0))) :lchan (quote ((1) (1) (1) (1) (1) (1) (1) (1) (1) (1) (1) (1) (1) (1) (1) (1) (1) (1) (1) (1) (1) (1) (1) (1) (1) (1) (1) (1) (1) (1) (1) (1) (1) (1) (1) (1) (1) (1) (1) (1) (1) (1) (1) (1) (1) (1) (1) (1) (1) (1) (1) (1) (1) (1) (1) (1) (1) (1) (1) (1) (1) (1) (1) (1) (1) (1) (1) (1) (1) (1) (1) (1) (1) (1) (1) (1) (1) (1) (1) (1) (1) (1) (1) (1) (1) (1) (1) (1) (1) (1) (1) (1) (1) (1) (1) (1) (1) (1) (1) (1) (1) (1) (1) (1) (1) (1) (1) (1) (1) (1) (1) (1) (1) (1) (1) (1) (1) (1) (1) (1) (1))) :legato 0)))) (load-port-info newobj (quote ((0) (0) (0) (0) (0) (0) (0) (0) (0) (0) (0) (0) (0) (0) (0) (0) (0) (0) (0) (0) (0) (0) (0) (0) (0) (0) (0) (0) (0) (0) (0) (0) (0) (0) (0) (0) (0) (0) (0) (0) (0) (0) (0) (0) (0) (0) (0) (0) (0) (0) (0) (0) (0) (0) (0) (0) (0) (0) (0) (0) (0) (0) (0) (0) (0) (0) (0) (0) (0) (0) (0) (0) (0) (0) (0) (0) (0) (0) (0) (0) (0) (0) (0) (0) (0) (0) (0) (0) (0) (0) (0) (0) (0) (0) (0) (0) (0) (0) (0) (0) (0) (0) (0) (0) (0) (0) (0) (0) (0) (0) (0) (0) (0) (0) (0) (0) (0) (0) (0) (0) (0)))) (init-mus-color newobj (quote nil)) (set-extra-pairs newobj (quote nil)) (set-patch-pairs newobj (quote nil)) (set-name newobj nil) (set-tonalite newobj nil) newobj) nil nil (pairlis (quote (approx fontsize staff cmnpref deltapict outport inport player zoom notechancolor? grillestep mode winsize winpos score-mode obj-mode cursor-mode show-stems scale)) (list 2 24 (quote g) (let ((newobj (make-instance (quote edition-values)))) (setf (paper-size newobj) (om-make-point 600 800)) (setf (top-margin newobj) 4) (setf (left-margin newobj) 1) (setf (right-margin newobj) 1) (setf (bottom-margin newobj) 1) (setf (orientation newobj) nil) (setf (scale newobj) nil) (setf (system-space newobj) (quote (1))) (setf (system-color newobj) (quote nil)) (setf (line-space newobj) 1) (setf (title newobj) nil) (setf (show-title? newobj) nil) (setf (show-page? newobj) nil) (setf (sheet-id newobj) nil) (setf (page-mode newobj) nil) newobj) (om-make-point 0 0) nil nil (quote :midi-player) 1 nil 1000 0 (om-make-point 1380 523) (om-make-point 0 0) 0 1 (quote :normal) (quote t) nil)) t nil nil nil))) (when (fboundp (quote set-active)) (set-active box nil)) box) (let ((box (om-load-boxcall (quote bastype) "aux 7" (quote t) (quote nil) (om-make-point 532 142) (om-make-point 41 32) 100 "100" nil))) (when (fboundp (quote set-active)) (set-active box nil)) box) (let ((box (om-load-boxcall (quote bastype) "aux 6" (quote t) (quote nil) (om-make-point 405 135) (om-make-point 41 32) 121 "121" nil))) (when (fboundp (quote set-active)) (set-active box nil)) box) (let ((box (om-load-boxwithed1 (quote box-with-win) "play-pat" (quote omloop) (quote ((om-load-inputfun (quote input-funbox) "" "pat" nil) (om-load-inputfun (quote input-funbox) "" "n" nil) (om-load-inputfun (quote input-funbox) "" "rate" nil))) (om-make-point 333 177) (om-make-point 181 60) nil nil (list (let ((box (om-load-boxcall (quote bastype) "aux 5" (quote t) (quote nil) (om-make-point 592 211) (om-make-point 27 32) 4 "4" nil))) (when (fboundp (quote set-active)) (set-active box nil)) box) (let ((box (om-load-boxcall (quote bastype) "aux 4" (quote t) (quote nil) (om-make-point 551 210) (om-make-point 37 32) 2.5 "2.5" nil))) (when (fboundp (quote set-active)) (set-active box nil)) box) (let ((box (om-load-boxcall (quote genfun) "OM*" (quote om*) (quote ((om-load-inputfun (quote input-funbox) "number or list" "ARG1" (quote n)) (om-load-inputfun (quote input-funbox) "number or list" "ARG2" (quote a)))) (om-make-point 535 401) (om-make-point 74 35) nil nil nil 1))) (when (fboundp (quote set-active)) (set-active box nil)) box) (let ((box (om-load-boxcall (quote genfun) "OMIF 3" (quote omif) (quote ((om-load-inputfun (quote input-funbox) "IF" "TEST" nil) (om-load-inputfun (quote input-funbox) "THEN" "ACTION" nil) (om-load-inputfun (quote input-funbox) "ELSE" "ELSE" nil))) (om-make-point 510 265) (om-make-point 103 58) nil nil nil 1))) (when (fboundp (quote set-active)) (set-active box nil)) box) (let ((box (om-load-boxcall (quote lispfun) "STRINGP 3" (quote stringp) (quote ((om-load-inputfun (quote input-funbox) "OBJECT" "OBJECT" nil))) (om-make-point 507 201) nil nil nil nil 1))) (when (fboundp (quote set-active)) (set-active box nil)) box) (let ((box (om-load-boxcall (quote genfun) "collect 3" (quote listing) (quote ((om-load-inputfun (quote input-funbox) "anything" "DATA" nil))) (om-make-point 521 451) nil nil nil nil 3))) (when (fboundp (quote set-active)) (set-active box nil)) box) (let ((box (om-load-boxcall (quote bastype) "aux 3" (quote t) (quote nil) (om-make-point 388 82) (om-make-point 27 32) 1 "1" nil))) (when (fboundp (quote set-active)) (set-active box nil)) box) (let ((box (om-load-boxcall (quote genfun) "for" (quote forloop) (quote ((om-load-inputfun (quote input-funbox) "low value" "FROM" 0) (om-load-inputfun (quote input-funbox) "high value" "TO" 10))) (om-make-point 398 116) nil nil nil nil 1))) (when (fboundp (quote set-active)) (set-active box nil)) box) (let ((box (om-load-boxcall (quote genfun) "N->MC" (quote n->mc) (quote ((om-load-inputfun (quote input-funbox) "note name or list of note names" "STRS" (list "C3")))) (om-make-point 164 283) nil nil nil nil 1))) (when (fboundp (quote set-active)) (set-active box nil)) box) (let ((box (om-load-boxcall (quote genfun) "OMIF 2" (quote omif) (quote ((om-load-inputfun (quote input-funbox) "IF" "TEST" nil) (om-load-inputfun (quote input-funbox) "THEN" "ACTION" nil) (om-load-inputfun (quote input-funbox) "ELSE" "ELSE" nil))) (om-make-point 103 333) (om-make-point 158 58) nil nil nil 1))) (when (fboundp (quote set-active)) (set-active box nil)) box) (let ((box (om-load-boxcall (quote lispfun) "STRINGP 2" (quote stringp) (quote ((om-load-inputfun (quote input-funbox) "OBJECT" "OBJECT" nil))) (om-make-point 100 266) nil nil nil nil 1))) (when (fboundp (quote set-active)) (set-active box nil)) box) (let ((box (om-load-boxcall (quote bastype) "aux 2" (quote t) (quote nil) (om-make-point 418 240) (om-make-point 34 32) 90 "90" nil))) (when (fboundp (quote set-active)) (set-active box nil)) box) (let ((box (om-load-boxcall (quote bastype) "aux" (quote t) (quote nil) (om-make-point 377 239) (om-make-point 34 32) 80 "80" nil))) (when (fboundp (quote set-active)) (set-active box nil)) box) (let ((box (om-load-boxcall (quote lispfun) "STRINGP" (quote stringp) (quote ((om-load-inputfun (quote input-funbox) "OBJECT" "OBJECT" nil))) (om-make-point 330 236) nil nil nil nil 1))) (when (fboundp (quote set-active)) (set-active box nil)) box) (let ((box (om-load-boxcall (quote genfun) "OMIF" (quote omif) (quote ((om-load-inputfun (quote input-funbox) "IF" "TEST" nil) (om-load-inputfun (quote input-funbox) "THEN" "ACTION" nil) (om-load-inputfun (quote input-funbox) "ELSE" "ELSE" nil))) (om-make-point 333 303) (om-make-point 103 58) nil nil nil 1))) (when (fboundp (quote set-active)) (set-active box nil)) box) (let ((box (om-load-boxcall (quote genfun) "P-NEXT" (quote p-next) (quote ((om-load-inputfun (quote input-funbox) "pattern" "OBJ" nil))) (om-make-point 269 127) nil nil "&" nil 1))) (when (fboundp (quote set-active)) (set-active box nil)) box) (let ((box (om-load-boxcall (quote genfun) "collect 2" (quote listing) (quote ((om-load-inputfun (quote input-funbox) "anything" "DATA" nil))) (om-make-point 287 435) nil nil nil nil 3))) (when (fboundp (quote set-active)) (set-active box nil)) box) (let ((box (om-load-boxcall (quote genfun) "collect" (quote listing) (quote ((om-load-inputfun (quote input-funbox) "anything" "DATA" nil))) (om-make-point 115 420) nil nil nil nil 3))) (when (fboundp (quote set-active)) (set-active box nil)) box) (let ((box (om-load-boxin "rate" 2 (om-make-point 671 209) "" "rate" nil nil))) (when (fboundp (quote set-active)) (set-active box nil)) box) (let ((box (om-load-boxin "n" 1 (om-make-point 418 38) "" "n" nil nil))) (when (fboundp (quote set-active)) (set-active box nil)) box) (let ((box (om-load-boxin "pat" 0 (om-make-point 85 60) "" "pat" nil nil))) (when (fboundp (quote set-active)) (set-active box nil)) box) (let ((box (om-load-seqbox "finally" (quote finaldo) (quote ((om-load-inputfun (quote input-funbox) "value to return" "VAL" nil) (om-load-inputfun (quote input-funbox) "other values" "MORE" nil) (om-load-inputfun (quote input-funbox) "other values" "MORE" nil))) (om-make-point 204 619) nil nil nil 0))) (when (fboundp (quote set-active)) (set-active box nil)) box) (let ((box (om-load-seqbox "eachTime" (quote loopdo) (quote ((om-load-inputfun (quote input-funbox) "operations to do" "OP" nil) (om-load-inputfun (quote input-funbox) "other oprations" "MORE" nil) (om-load-inputfun (quote input-funbox) "other oprations" "MORE" nil))) (om-make-point 104 619) nil nil nil 0))) (when (fboundp (quote set-active)) (set-active box nil)) box)) (quote ((3 0 2 0 nil 0) (18 0 2 1 nil 0) (4 0 3 0 nil 0) (1 0 3 1 nil 0) (0 0 3 2 nil 0) (15 0 4 0 nil 0) (2 0 5 0 nil 0) (6 0 7 0 nil 0) (19 0 7 1 nil 0) (15 0 8 0 nil 0) (10 0 9 0 nil 0) (8 0 9 1 nil 0) (15 0 9 2 nil 0) (15 0 10 0 nil 0) (15 0 13 0 nil 0) (13 0 14 0 nil 0) (12 0 14 1 nil 0) (11 0 14 2 nil 0) (20 0 15 0 nil 0) (14 0 16 0 nil 0) (9 0 17 0 nil 0) (17 1 21 0 nil 0) (16 1 21 1 nil 0) (5 1 21 2 nil 0) (17 0 22 0 nil 0) (16 0 22 1 nil 0) (5 0 22 2 nil 0))) 3 "play-pat" nil))) (when (fboundp (quote set-active)) (set-active box nil)) box) (let ((box (om-load-boxcall (quote bastype) "aux 4" (quote t) (quote nil) (om-make-point 165 254) (om-make-point 98 32) (list (list 0 1 1) (list 0 1 2)) "((0 1 1)(0 1 2))" nil))) (when (fboundp (quote set-active)) (set-active box nil)) box) (let ((box (om-load-boxcall (quote genfun) "P-CYCLE" (quote p-cycle) (quote ((om-load-inputfun (quote input-funbox) "data" "OF" nil))) (om-make-point 156 298) nil nil nil nil 1))) (when (fboundp (quote set-active)) (set-active box nil)) box) (let ((box (om-load-boxcall (quote genfun) "X-APPEND" (quote x-append) (quote ((om-load-inputfun (quote input-funbox) "first element" "L1?" nil) (om-load-inputfun (quote input-funbox) "second element" "L2?" nil))) (om-make-point 90 282) nil nil nil nil 1))) (when (fboundp (quote set-active)) (set-active box nil)) box) (let ((box (om-load-boxcall (quote genfun) "P-ROTATION" (quote p-rotation) (quote ((om-load-inputfun (quote input-funbox) "" "OF" nil) (om-load-inputfun (quote input-funbox) "" "ROTATIONS" (list 0 1 1)))) (om-make-point 130 384) nil nil nil nil 1))) (when (fboundp (quote set-active)) (set-active box nil)) box) (let ((box (om-load-boxcall (quote bastype) "aux 3" (quote t) (quote nil) (om-make-point 16 77) (om-make-point 41 32) "c6" "\"c6\"" nil))) (when (fboundp (quote set-active)) (set-active box nil)) box) (let ((box (om-load-boxcall (quote genfun) "N->MC" (quote n->mc) (quote ((om-load-inputfun (quote input-funbox) "note name or list of note names" "STRS" (list "C3")))) (om-make-point 13 118) nil nil nil nil 1))) (when (fboundp (quote set-active)) (set-active box nil)) box) (let ((box (om-load-boxcall (quote bastype) "aux 2" (quote t) (quote nil) (om-make-point 128 184) (om-make-point 128 32) (list "b3" "f4" "g5" "eb6") "(\"b3\" \"f4\" \"g5\" \"eb6\")" nil))) (when (fboundp (quote set-active)) (set-active box nil)) box) (let ((box (om-load-boxcall (quote bastype) "aux" (quote t) (quote nil) (om-make-point 57 118) (om-make-point 45 32) -200 "-200" nil))) (when (fboundp (quote set-active)) (set-active box nil)) box) (let ((box (om-load-boxcomment "comment" (om-make-point 536 38) (quote "rotation - rotating a descending whole-tone figure with fixed notes") "" (om-make-point 92 24) nil (om-make-color 0 0 0) (om-make-font "Liberation Sans" 15.998697916666666D0 :family "Liberation Sans" :style (quote (:bold)) :mode (quote nil))))) (when (fboundp (quote set-active)) (set-active box nil)) box))) (quote ((14 0 0 0 nil 0) (16 0 0 1 nil 0) (3 0 4 0 nil 0) (6 0 4 1 nil 0) (8 0 5 1 nil 0) (4 0 5 2 nil 0) (8 2 5 3 nil 2) (8 1 5 4 nil 1) (12 0 8 0 nil 0) (7 0 8 1 nil 0) (6 0 8 2 nil 0) (9 0 10 0 nil 0) (0 0 11 0 nil 0) (15 0 11 1 nil 0) (11 0 12 0 nil 0) (10 0 12 1 nil 0) (13 0 14 0 nil 0))) nil 6.120004))
