; OM File Header - Saved 2017/04/03 20:54:16
; (6.120001 :patc (om-make-point 226 60) (om-make-point 0 0) (om-make-point 814 459) "" 183 0 "2017/03/21 10:24:51" "2017/04/03 20:54:16")
; End File Header
(in-package :om)(load-lib-for (quote ("Patterns")))(setf *om-current-persistent* (om-load-patch1 "04 Creating and reading" (quote ((let ((box (om-load-boxcomment "comment" (om-make-point 323 38) (quote "Creating Patterns and reading their events") "" (om-make-point 280 60) nil (om-make-color 0 0 0) (om-make-font "Liberation Sans" 15.998697916666666D0 :family "Liberation Sans" :style (quote (:plain)) :mode (quote nil))))) (when (fboundp (quote set-active)) (set-active box nil)) box) (let ((box (om-load-boxcomment "comment" (om-make-point 164 45) (quote "p-next returns successive$items from a stream") "" (om-make-point 20 220) nil (om-make-color 0 0 0) (om-make-font "Liberation Sans" 12 :family "Liberation Sans" :style (quote (:plain)) :mode (quote nil))))) (when (fboundp (quote set-active)) (set-active box nil)) box) (let ((box (om-load-boxcomment "comment" (om-make-point 175 75) (quote "optional [num] is how many$items to generate.$num=t means return one$period's worth of items") "" (om-make-point 420 282) nil (om-make-color 0 0 0) (om-make-font "Liberation Sans" 12 :family "Liberation Sans" :style (quote (:plain)) :mode (quote nil))))) (when (fboundp (quote set-active)) (set-active box nil)) box) (let ((box (om-load-boxcall (quote bastype) "aux 3" (quote t) (quote nil) (om-make-point 380 280) (om-make-point 23 32) (quote t) "t" nil))) (when (fboundp (quote set-active)) (set-active box nil)) box) (let ((box (om-load-boxcall (quote genfun) "P-NEXT" (quote p-next) (quote ((om-load-inputfun (quote input-funbox) "pattern" "OBJ" nil) (om-load-inputfun (quote input-funbox) "pattern" "NUM" nil))) (om-make-point 360 320) nil nil nil nil 1))) (when (fboundp (quote set-active)) (set-active box nil)) box) (let ((box (om-load-boxcomment "comment" (om-make-point 229 38) (quote "Working with Patterns - ex. 4") "" (om-make-point 280 20) nil (om-make-color 0 0 0) (om-make-font "Liberation Sans" 15.998697916666666D0 :family "Liberation Sans" :style (quote (:plain)) :mode (quote nil))))) (when (fboundp (quote set-active)) (set-active box nil)) box) (let ((box (om-load-boxcomment "comment" (om-make-point 155 75) (quote "create a pattern stream.$(Take care to lock it for$the examples in this$patch to work correctly)") "" (om-make-point 20 120) nil (om-make-color 0 0 0) (om-make-font "Liberation Sans" 12 :family "Liberation Sans" :style (quote (:plain)) :mode (quote nil))))) (when (fboundp (quote set-active)) (set-active box nil)) box) (let ((box (om-load-boxcall (quote bastype) "aux 2" (quote t) (quote nil) (om-make-point 270 282) (om-make-point 27 32) 2 "2" nil))) (when (fboundp (quote set-active)) (set-active box nil)) box) (let ((box (om-load-boxcall (quote genfun) "P-NEXT" (quote p-next) (quote ((om-load-inputfun (quote input-funbox) "pattern" "OBJ" nil) (om-load-inputfun (quote input-funbox) "pattern" "NUM" nil))) (om-make-point 240 320) nil nil nil nil 1))) (when (fboundp (quote set-active)) (set-active box nil)) box) (let ((box (om-load-boxcomment "comment" (om-make-point 118 30) (quote "eval several times") "" (om-make-point 20 340) nil (om-make-color 0 0 0) (om-make-font "Liberation Sans" 12 :family "Liberation Sans" :style (quote (:plain)) :mode (quote nil))))) (when (fboundp (quote set-active)) (set-active box nil)) box) (let ((box (om-load-boxcall (quote genfun) "P-NEXT" (quote p-next) (quote ((om-load-inputfun (quote input-funbox) "pattern" "OBJ" nil))) (om-make-point 140 320) nil nil nil nil 1))) (when (fboundp (quote set-active)) (set-active box nil)) box) (let ((box (om-load-boxcall (quote bastype) "aux" (quote t) (quote nil) (om-make-point 174 77) (om-make-point 65 32) (list 1 2 3 4) "(1 2 3 4)" nil))) (when (fboundp (quote set-active)) (set-active box nil)) box) (let ((box (om-load-boxcall (quote genfun) "P-CYCLE" (quote p-cycle) (quote ((om-load-inputfun (quote input-funbox) "data" "OF" (list 1 2 3 4)))) (om-make-point 184 126) nil (list nil) "x" nil 1))) (when (fboundp (quote set-active)) (set-active box nil)) box))) (quote ((12 0 4 0 nil 0) (3 0 4 1 nil 0) (12 0 8 0 nil 0) (7 0 8 1 nil 0) (12 0 10 0 nil 0) (11 0 12 0 nil 0))) nil 6.120001))
