; OM File Header - Saved 2024/01/02 16:22:26
; (7.04 :patc (om-make-point 226 60) (om-make-point 0 0) (om-make-point 1038 1017) "" 183 0 nil "2024/01/02 16:22:26")
; End File Header
(in-package :om)(load-lib-for (quote ("Patterns")))(setf *om-current-persistent* (om-load-patch1 "07 end-of-period and end-of-data" (quote ((let ((box (om-load-boxcall (quote genfun) "FLAT" (quote flat) (quote ((om-load-inputfun (quote input-funbox) "a list" "LST" nil))) (om-make-point 59 693) nil nil nil nil 1))) (when (fboundp (quote set-active)) (set-active box nil)) box) (let ((box (om-load-editor-box1 "BPF" (quote bpf) (quote ((om-load-inputfun (quote input-funbox) "object" "self" nil) (om-load-inputfun (quote input-funbox) "X coordinates (list)" "x-points" (list 0 100)) (om-load-inputfun (quote input-funbox) "Y coordinates (list)" "y-points" (list 0 100)) (om-load-inputfun (quote input-funbox) "precision (integer) [0 - 10]" "decimals" 0))) (om-make-point 156 714) (om-make-point 308 86) (let ((newobj (when (find-class (quote bpf) nil) (let ((newbpf (simple-bpf-from-list (quote (0 100 200 300 400 500 600 700 800 900 1000 1100 1200 1300 1400 1500 1600 1700 1800 1900 2000 2100 2200 2300 2400 2500 2600 2700 2800 2900 3000 3100 3200 3300 3400 3500 3600 3700 3800 3900 4000 4100 4200 4300 4400 4500 4600 4700 4800 4900 5000 5100 5200 5300 5400 5500 5600 5700 5800 5900 6000 6100 6200 6300 6400 6500 6600 6700 6800 6900 7000 7100 7200 7300 7400 7500 7600 7700 7800 7900 8000 8100 8200 8300)) (quote (100 60 60 100 60 60 60 60 100 60 60 60 60 100 60 60 100 60 60 60 100 60 60 100 100 60 100 60 60 60 100 60 60 100 100 100 60 60 100 60 100 60 60 60 100 60 100 60 60 60 100 60 100 60 60 60 60 100 60 100 60 60 100 60 60 60 100 100 100 60 100 60 100 60 60 60 60 100 60 100 60 60 60 100)) (quote bpf) 0))) (setf (bpfcolor newbpf) (om-make-color 0 0 0)) (set-name newbpf "BPF") newbpf)))) (when newobj) newobj) nil nil (pairlis (quote (picture winpos winsize)) (list nil (om-make-point 0 0) (om-make-point 801 487))) t nil nil nil (quote nil)))) (when (fboundp (quote set-active)) (set-active box nil)) box) (let ((box (om-load-boxcomment "comment" (om-make-point 252 45) (quote "create 30 periods,$each with a random period-length (1->5)") "" (om-make-point 294 254) nil (om-make-color 0 0 0) (om-make-font "Liberation Sans" 12 :family "Liberation Sans" :style (quote (:plain)) :mode (quote nil))))) (when (fboundp (quote set-active)) (set-active box nil)) box) (let ((box (om-load-boxcomment "comment" (om-make-point 55 30) (quote "regular") "" (om-make-point 268 350) nil (om-make-color 0 0 0) (om-make-font "Liberation Sans" 12 :family "Liberation Sans" :style (quote (:plain)) :mode (quote nil))))) (when (fboundp (quote set-active)) (set-active box nil)) box) (let ((box (om-load-boxcomment "comment" (om-make-point 55 30) (quote "accent") "" (om-make-point 208 350) nil (om-make-color 0 0 0) (om-make-font "Liberation Sans" 12 :family "Liberation Sans" :style (quote (:plain)) :mode (quote nil))))) (when (fboundp (quote set-active)) (set-active box nil)) box) (let ((box (om-load-boxcall (quote genfun) "P-EOD?" (quote p-eod?) (quote ((om-load-inputfun (quote input-funbox) "" "X" nil))) (om-make-point 419 130) nil nil nil nil 1))) (when (fboundp (quote set-active)) (set-active box nil)) box) (let ((box (om-load-boxcomment "comment" (om-make-point 258 75) (quote ":eod and :eop are used inside loop to$$  a) control iteration: stop at :end-of-data$  b) create accents: at each :end-of-period") "" (om-make-point 313 431) nil (om-make-color 0 0 0) (om-make-font "Liberation Sans" 12 :family "Liberation Sans" :style (quote (:plain)) :mode (quote nil))))) (when (fboundp (quote set-active)) (set-active box nil)) box) (let ((box (om-load-editor-box1 "CHORD-SEQ" (quote chord-seq) (quote ((om-load-inputfun (quote input-funbox) "object" "self" nil) (om-load-inputfun (quote input-funbox) "pitches (mc): list or list of lists" "lmidic" (list 6000)) (om-load-inputfun (quote input-funbox) "onsets (ms): list" "lonset" (list 0 100)) (om-load-inputfun (quote input-funbox) "durations (ms): list or list of lists" "ldur" (list 1000)) (om-load-inputfun (quote input-funbox) "velocities (0-127): list or list of lists" "lvel" (list 100)) (om-load-inputfun (quote input-funbox) "offsets (ms): list or list of lists" "loffset" (list 0)) (om-load-inputfun (quote input-funbox) "MIDI channels (1-16): list or list of lists" "lchan" (list 1)) (om-load-inputfun (quote input-funbox) "relative chords duration (0-100)" "legato" 100))) (om-make-point 44 586) (om-make-point 671 94) (let ((newobj (when (find-class (quote chord-seq) nil) (make-instance (quote chord-seq) :lmidic (quote ((7400) (7100) (6900) (7200) (7400) (7200) (7100) (6900) (7100) (7200) (6900) (7400) (7200) (7400) (7100) (6900) (6900) (7400) (7200) (7100) (7200) (7400) (7100) (6900) (7400) (7100) (7200) (6900) (6900) (7200) (7100) (7400) (6900) (7100) (7200) (7400) (7400) (7200) (6900) (7100) (7400) (7200) (7100) (6900) (7400) (6900) (7100) (7200) (7100) (7400) (6900) (7200) (7400) (6900) (7200) (7100) (7100) (7200) (6900) (7400) (7200) (7400) (7100) (6900) (7200) (7100) (6900) (7400) (7200) (7400) (7100) (6900) (7200) (6900) (7400) (7100) (7400) (6900) (7200) (7100) (7400) (7100) (7200) (6900))) :lonset (quote (0 100 200 300 400 500 600 700 800 900 1000 1100 1200 1300 1400 1500 1600 1700 1800 1900 2000 2100 2200 2300 2400 2500 2600 2700 2800 2900 3000 3100 3200 3300 3400 3500 3600 3700 3800 3900 4000 4100 4200 4300 4400 4500 4600 4700 4800 4900 5000 5100 5200 5300 5400 5500 5600 5700 5800 5900 6000 6100 6200 6300 6400 6500 6600 6700 6800 6900 7000 7100 7200 7300 7400 7500 7600 7700 7800 7900 8000 8100 8200 8300 8400)) :ldur (quote ((100) (100) (100) (100) (100) (100) (100) (100) (100) (100) (100) (100) (100) (100) (100) (100) (100) (100) (100) (100) (100) (100) (100) (100) (100) (100) (100) (100) (100) (100) (100) (100) (100) (100) (100) (100) (100) (100) (100) (100) (100) (100) (100) (100) (100) (100) (100) (100) (100) (100) (100) (100) (100) (100) (100) (100) (100) (100) (100) (100) (100) (100) (100) (100) (100) (100) (100) (100) (100) (100) (100) (100) (100) (100) (100) (100) (100) (100) (100) (100) (100) (100) (100) (100))) :lvel (quote ((100) (60) (60) (100) (60) (60) (60) (60) (100) (60) (60) (60) (60) (100) (60) (60) (100) (60) (60) (60) (100) (60) (60) (100) (100) (60) (100) (60) (60) (60) (100) (60) (60) (100) (100) (100) (60) (60) (100) (60) (100) (60) (60) (60) (100) (60) (100) (60) (60) (60) (100) (60) (100) (60) (60) (60) (60) (100) (60) (100) (60) (60) (100) (60) (60) (60) (100) (100) (100) (60) (100) (60) (100) (60) (60) (60) (60) (100) (60) (100) (60) (60) (60) (100))) :loffset (quote ((0) (0) (0) (0) (0) (0) (0) (0) (0) (0) (0) (0) (0) (0) (0) (0) (0) (0) (0) (0) (0) (0) (0) (0) (0) (0) (0) (0) (0) (0) (0) (0) (0) (0) (0) (0) (0) (0) (0) (0) (0) (0) (0) (0) (0) (0) (0) (0) (0) (0) (0) (0) (0) (0) (0) (0) (0) (0) (0) (0) (0) (0) (0) (0) (0) (0) (0) (0) (0) (0) (0) (0) (0) (0) (0) (0) (0) (0) (0) (0) (0) (0) (0) (0))) :lchan (quote ((1) (1) (1) (1) (1) (1) (1) (1) (1) (1) (1) (1) (1) (1) (1) (1) (1) (1) (1) (1) (1) (1) (1) (1) (1) (1) (1) (1) (1) (1) (1) (1) (1) (1) (1) (1) (1) (1) (1) (1) (1) (1) (1) (1) (1) (1) (1) (1) (1) (1) (1) (1) (1) (1) (1) (1) (1) (1) (1) (1) (1) (1) (1) (1) (1) (1) (1) (1) (1) (1) (1) (1) (1) (1) (1) (1) (1) (1) (1) (1) (1) (1) (1) (1))) :legato 100)))) (load-port-info newobj (quote ((0) (0) (0) (0) (0) (0) (0) (0) (0) (0) (0) (0) (0) (0) (0) (0) (0) (0) (0) (0) (0) (0) (0) (0) (0) (0) (0) (0) (0) (0) (0) (0) (0) (0) (0) (0) (0) (0) (0) (0) (0) (0) (0) (0) (0) (0) (0) (0) (0) (0) (0) (0) (0) (0) (0) (0) (0) (0) (0) (0) (0) (0) (0) (0) (0) (0) (0) (0) (0) (0) (0) (0) (0) (0) (0) (0) (0) (0) (0) (0) (0) (0) (0) (0)))) (init-mus-color newobj (quote nil)) (set-extra-pairs newobj (quote nil)) (set-patch-pairs newobj (quote nil)) (set-name newobj nil) (set-tonalite newobj nil) newobj) nil nil (pairlis (quote (measure onset scale show-stems cursor-mode obj-mode score-mode winpos winsize mode grillestep notechancolor? zoom player inport outport deltapict cmnpref staff fontsize approx)) (list nil nil nil (quote t) (quote :normal) 1 0 (om-make-point 400 20) (om-make-point 370 280) 0 1000 nil 1 (quote :fluidsynth) nil nil (om-make-point 0 0) (let ((newobj (make-instance (quote edition-values)))) (setf (paper-size newobj) (om-make-point 600 800)) (setf (top-margin newobj) 2) (setf (left-margin newobj) 1) (setf (right-margin newobj) 1) (setf (bottom-margin newobj) 1) (setf (orientation newobj) nil) (setf (scale newobj) nil) (setf (system-space newobj) (quote (1))) (setf (system-color newobj) (quote nil)) (setf (line-space newobj) 1) (setf (title newobj) nil) (setf (show-title? newobj) nil) (setf (show-page? newobj) nil) (setf (sheet-id newobj) nil) (setf (page-mode newobj) nil) newobj) (quote g) 24 2)) t nil nil t (quote nil)))) (when (fboundp (quote set-active)) (set-active box nil)) box) (let ((box (om-load-boxcall (quote bastype) "aux 5" (quote t) (quote nil) (om-make-point 262 382) (om-make-point 34 32) 60 "60" nil))) (when (fboundp (quote set-active)) (set-active box nil)) box) (let ((box (om-load-boxcall (quote bastype) "aux 3" (quote t) (quote nil) (om-make-point 204 383) (om-make-point 41 32) 100 "100" nil))) (when (fboundp (quote set-active)) (set-active box nil)) box) (let ((box (om-load-boxwithed1 (quote box-with-win) "OMLOOP" (quote omloop) (quote ((om-load-inputfun (quote input-funbox) "" "pattern" nil) (om-load-inputfun (quote input-funbox) "" "amp1" nil) (om-load-inputfun (quote input-funbox) "" "amp2" nil))) (om-make-point 145 444) (om-make-point 152 60) nil "&" (list (let ((box (om-load-boxcomment "comment" (om-make-point 239 30) (quote "remove :end-of-data (already collected)") "" (om-make-point 454 461) nil (om-make-color 0 0 0) (om-make-font "Liberation Sans" 12 :family "Liberation Sans" :style (quote (:plain)) :mode (quote nil))))) (when (fboundp (quote set-active)) (set-active box nil)) box) (let ((box (om-load-boxcall (quote lispfun) "BUTLAST" (quote butlast) (quote ((om-load-inputfun (quote input-funbox) "LIST" "LIST" nil))) (om-make-point 404 452) nil nil nil nil 1))) (when (fboundp (quote set-active)) (set-active box nil)) box) (let ((box (om-load-boxcall (quote lispfun) "BUTLAST" (quote butlast) (quote ((om-load-inputfun (quote input-funbox) "LIST" "LIST" nil))) (om-make-point 350 451) nil nil nil nil 1))) (when (fboundp (quote set-active)) (set-active box nil)) box) (let ((box (om-load-boxcomment "comment" (om-make-point 105 75) (quote "use amp1 to $accentuate first$item in each$pattern-period") "" (om-make-point 528 240) nil (om-make-color 0 0 0) (om-make-font "Liberation Sans" 12 :family "Liberation Sans" :style (quote (:plain)) :mode (quote nil))))) (when (fboundp (quote set-active)) (set-active box nil)) box) (let ((box (om-load-boxcall (quote genfun) "collect 2" (quote listing) (quote ((om-load-inputfun (quote input-funbox) "anything" "DATA" nil))) (om-make-point 428 330) nil nil nil nil 3))) (when (fboundp (quote set-active)) (set-active box nil)) box) (let ((box (om-load-boxcall (quote genfun) "collect" (quote listing) (quote ((om-load-inputfun (quote input-funbox) "anything" "DATA" nil))) (om-make-point 199 329) nil nil nil nil 3))) (when (fboundp (quote set-active)) (set-active box nil)) box) (let ((box (om-load-boxcomment "comment" (om-make-point 80 45) (quote "stop at $end of data") "" (om-make-point 14 276) nil (om-make-color 0 0 0) (om-make-font "Liberation Sans" 12 :family "Liberation Sans" :style (quote (:plain)) :mode (quote nil))))) (when (fboundp (quote set-active)) (set-active box nil)) box) (let ((box (om-load-boxin "amp2" 2 (om-make-point 540 90) "" "amp2" nil nil))) (when (fboundp (quote set-active)) (set-active box nil)) box) (let ((box (om-load-boxcall (quote genfun) "OMIF" (quote omif) (quote ((om-load-inputfun (quote input-funbox) "IF" "TEST" nil) (om-load-inputfun (quote input-funbox) "THEN" "ACTION" nil) (om-load-inputfun (quote input-funbox) "ELSE" "ELSE" nil))) (om-make-point 404 254) (om-make-point 103 58) nil nil nil 1))) (when (fboundp (quote set-active)) (set-active box nil)) box) (let ((box (om-load-boxcall (quote genfun) "P-EOP?" (quote p-eop?) (quote ((om-load-inputfun (quote input-funbox) "" "X" nil))) (om-make-point 342 165) nil nil nil nil 1))) (when (fboundp (quote set-active)) (set-active box nil)) box) (let ((box (om-load-boxcall (quote lispfun) "NOT" (quote not) (quote ((om-load-inputfun (quote input-funbox) "X" "X" nil))) (om-make-point 99 267) nil nil nil nil 1))) (when (fboundp (quote set-active)) (set-active box nil)) box) (let ((box (om-load-boxcall (quote genfun) "P-EOD?" (quote p-eod?) (quote ((om-load-inputfun (quote input-funbox) "" "X" nil))) (om-make-point 91 177) nil nil nil nil 1))) (when (fboundp (quote set-active)) (set-active box nil)) box) (let ((box (om-load-boxcall (quote genfun) "while" (quote whileloop) (quote ((om-load-inputfun (quote input-funbox) "condition" "EXPR" nil))) (om-make-point 80 321) nil nil nil nil 0))) (when (fboundp (quote set-active)) (set-active box nil)) box) (let ((box (om-load-boxcall (quote genfun) "P-NEXT" (quote p-next) (quote ((om-load-inputfun (quote input-funbox) "pattern" "OBJ" nil))) (om-make-point 202 237) nil nil nil nil 1))) (when (fboundp (quote set-active)) (set-active box nil)) box) (let ((box (om-load-boxin "amp1" 1 (om-make-point 400 90) "" "amp1" nil nil))) (when (fboundp (quote set-active)) (set-active box nil)) box) (let ((box (om-load-boxin "pattern" 0 (om-make-point 120 60) "" "pattern" nil nil))) (when (fboundp (quote set-active)) (set-active box nil)) box) (let ((box (om-load-seqbox "finally" (quote finaldo) (quote ((om-load-inputfun (quote input-funbox) "value to return" "VAL" nil) (om-load-inputfun (quote input-funbox) "other values" "MORE" nil))) (om-make-point 400 510) nil nil nil 0))) (when (fboundp (quote set-active)) (set-active box nil)) box) (let ((box (om-load-seqbox "eachTime" (quote loopdo) (quote ((om-load-inputfun (quote input-funbox) "operations to do" "OP" nil) (om-load-inputfun (quote input-funbox) "other oprations" "MORE" nil))) (om-make-point 200 510) nil nil nil 0))) (when (fboundp (quote set-active)) (set-active box nil)) box)) (quote ((4 1 1 0 nil 0) (5 1 2 0 nil 0) (8 0 4 0 nil 0) (13 0 5 0 nil 0) (9 0 8 0 nil 0) (14 0 8 1 nil 0) (7 0 8 2 nil 0) (15 0 9 0 nil 0) (11 0 10 0 nil 0) (15 0 11 0 nil 0) (10 0 12 0 nil 0) (15 0 13 0 nil 0) (2 0 16 0 nil 0) (1 0 16 1 nil 0) (5 0 17 0 nil 0) (4 0 17 1 nil 0))) 2 "omloop" nil))) (when (fboundp (quote set-active)) (set-active box nil)) box) (let ((box (om-load-boxcall (quote bastype) "aux 2" (quote t) (quote nil) (om-make-point 177 120) (om-make-point 75 32) (list 1 2 3 4 5) "(1 2 3 4 5)" nil))) (when (fboundp (quote set-active)) (set-active box nil)) box) (let ((box (om-load-boxcall (quote bastype) "aux" (quote t) (quote nil) (om-make-point 250 233) (om-make-point 34 32) 30 "30" nil))) (when (fboundp (quote set-active)) (set-active box nil)) box) (let ((box (om-load-boxcall (quote genfun) "P-WEIGHTING" (quote p-weighting) (quote ((om-load-inputfun (quote input-funbox) "" "OF" (list 1 2 3 4 5)))) (om-make-point 177 159) nil nil nil nil 1))) (when (fboundp (quote set-active)) (set-active box nil)) box) (let ((box (om-load-boxcall (quote genfun) "P-HEAP" (quote p-heap) (quote ((om-load-inputfun (quote input-funbox) "" "OF" nil) (om-load-inputkeyword (quote input-keyword) "" "for" (quote :for) nil nil) (om-load-inputkeyword (quote input-keyword) "" "repeat" (quote :repeat) nil nil))) (om-make-point 98 296) nil nil nil nil 1))) (when (fboundp (quote set-active)) (set-active box nil)) box) (let ((box (om-load-editor-box1 "CHORD" (quote chord) (quote ((om-load-inputfun (quote input-funbox) "object" "self" nil) (om-load-inputfun (quote input-funbox) "pitches (list of midicents)" "lmidic" (list 6000)) (om-load-inputfun (quote input-funbox) "velocities (list of values 0-127)" "lvel" (list 100)) (om-load-inputfun (quote input-funbox) "offsets (list of values in ms)" "loffset" (list 0)) (om-load-inputfun (quote input-funbox) "durations (list of values in ms)" "ldur" (list 1000)) (om-load-inputfun (quote input-funbox) "MIDI channels (list of values 0-16)" "lchan" (list 1)))) (om-make-point 63 145) (om-make-point 60 90) (let ((thechord (make-instance (quote chord) :lmidic (quote (6900 7100 7200 7400)) :ldur (quote (1000 1000 1000 1000)) :lvel (quote (100 100 100 100)) :loffset (quote (0 0 0 0)) :lchan (quote (1 1 1 1))))) (load-port-info thechord (quote (0 0 0 0))) (init-mus-color thechord (quote nil)) (set-extra-pairs thechord (quote nil)) (set-tonalite thechord nil) thechord) "x" nil (pairlis (quote (measure onset scale show-stems cursor-mode obj-mode score-mode winpos winsize mode grillestep notechancolor? zoom player inport outport deltapict cmnpref staff fontsize approx)) (list nil nil nil (quote t) (quote :normal) 0 0 (om-make-point 0 0) (om-make-point 370 280) 1 1000 nil 1 (quote :fluidsynth) nil nil (om-make-point 0 0) (let ((newobj (make-instance (quote edition-values)))) (setf (paper-size newobj) (om-make-point 600 800)) (setf (top-margin newobj) 2) (setf (left-margin newobj) 1) (setf (right-margin newobj) 1) (setf (bottom-margin newobj) 1) (setf (orientation newobj) nil) (setf (scale newobj) nil) (setf (system-space newobj) (quote (1))) (setf (system-color newobj) (quote nil)) (setf (line-space newobj) 1) (setf (title newobj) nil) (setf (show-title? newobj) nil) (setf (show-page? newobj) nil) (setf (sheet-id newobj) nil) (setf (page-mode newobj) nil) newobj) (quote g) 24 2)) t nil nil nil (quote nil)))) (when (fboundp (quote set-active)) (set-active box nil)) box) (let ((box (om-load-boxcall (quote genfun) "P-EOP?" (quote p-eop?) (quote ((om-load-inputfun (quote input-funbox) "" "X" nil))) (om-make-point 361 131) nil nil nil nil 1))) (when (fboundp (quote set-active)) (set-active box nil)) box) (let ((box (om-load-boxcomment "comment" (om-make-point 433 38) (quote "Checking for :eop (end-of-period) and :eod (end-of-data)") "" (om-make-point 280 60) nil (om-make-color 0 0 0) (om-make-font "Liberation Sans" 15.998697916666666D0 :family "Liberation Sans" :style (quote (:plain)) :mode (quote nil))))) (when (fboundp (quote set-active)) (set-active box nil)) box) (let ((box (om-load-boxcomment "comment" (om-make-point 229 38) (quote "Working with Patterns - ex. 7") "" (om-make-point 281 22) nil (om-make-color 0 0 0) (om-make-font "Liberation Sans" 15.998697916666666D0 :family "Liberation Sans" :style (quote (:plain)) :mode (quote nil))))) (when (fboundp (quote set-active)) (set-active box nil)) box))) (quote ((7 4 0 0 nil 0) (0 0 1 2 nil 0) (10 0 7 1 nil 0) (10 1 7 4 nil 0) (14 0 10 0 nil 0) (9 0 10 1 nil 0) (8 0 10 2 nil 0) (11 0 13 0 nil 0) (15 1 14 0 nil 0) (13 0 14 1 nil 0) (12 0 14 2 nil 0))) nil 7.04))
